<?xml version="1.0" encoding="UTF-8"?>
<svg id="Layer_1" data-name="Layer 1" xmlns="http://www.w3.org/2000/svg" viewBox="0 0 177.62 68.31">
  <defs>
    <style>
      .cls-1 {
        fill: #231f20;
        stroke-width: 0px;
      }
    </style>
  </defs>
  <g>
    <path class="cls-1" d="M1.24,8.98c.75-2.41,1.49-4.82,2.24-7.22.24-.77-.97-1.1-1.21-.33L.03,8.65c-.24.77.97,1.1,1.21.33h0Z"/>
    <path class="cls-1" d="M2.43,1.57l2,7.24c.21.77,1.42.45,1.21-.33L3.63,1.24c-.21-.77-1.42-.45-1.21.33h0Z"/>
    <path class="cls-1" d="M1.72,7.21c.66.05,1.33.03,1.98-.05.17-.02.31-.06.44-.18.11-.11.19-.29.18-.44s-.06-.33-.18-.44c-.11-.1-.28-.2-.44-.18-.66.08-1.32.1-1.98.05-.33-.02-.64.31-.62.62.02.36.27.6.62.62h0Z"/>
  </g>
  <g>
    <path class="cls-1" d="M1.87,16.69c-.49.06-.85.29-1.12.7-.22.32-.33.72-.38,1.1-.07.49-.11.99-.07,1.48s.09,1.04.31,1.49c.42.88,1.5.87,2.2.35s.95-1.36.97-2.17c.02-.92-.29-1.85-.76-2.63-.17-.29-.56-.4-.86-.22s-.4.57-.22.86c.07.12.14.24.21.37.03.06.06.13.09.19s0,0,0,0c.02.05.04.1.06.14.1.28.18.57.22.86-.02-.11,0,.07,0,.11,0,.07,0,.14,0,.21s0,.14,0,.21c0,.03,0,.06,0,.09-.01.18.01-.07,0,.04-.02.13-.05.27-.09.4-.01.03-.08.2-.03.09-.03.07-.07.14-.11.21-.02.03-.04.07-.06.1,0,0-.06.09-.02.03.04-.05-.07.07-.09.09s-.05.05-.08.07c.02-.01.07-.04.02-.02-.03.01-.19.11-.13.08.06-.03-.09.02-.12.03-.05.02-.09,0,.02,0-.02,0-.05,0-.07,0-.07-.02.05.01.05.01-.03,0-.06-.02-.09-.02.04,0,.1.07.02,0-.05-.05-.02-.02.01.01-.02-.02-.06-.08,0,0,0,0-.05-.09-.03-.04s-.02-.05-.02-.05c-.01-.04-.02-.09-.04-.13-.04-.16-.08-.37-.1-.5-.04-.31-.05-.7-.03-1.05s.06-.6.17-.94c.04-.11.01-.03,0,0,.02-.04.04-.08.06-.12.01-.02.03-.05.04-.07.05-.1-.04.02.01-.02.02-.01.04-.04.05-.06.07-.09-.04.04,0,0,.02-.02.04-.02.06-.04-.12.07.06,0-.08.02.32-.04.64-.26.62-.62-.01-.3-.28-.67-.62-.62h0Z"/>
    <path class="cls-1" d="M3.13,16.88l.2,4.23c.02.34.28.62.62.62.33,0,.64-.29.62-.62l-.2-4.23c-.02-.34-.28-.62-.62-.62-.33,0-.64.29-.62.62h0Z"/>
    <path class="cls-1" d="M3.33,20.76v.7c0,.09.01.17.05.24.03.08.07.14.13.2.06.06.12.1.2.13.07.04.15.06.24.05.16,0,.33-.06.44-.18s.18-.27.18-.44v-.7c0-.09-.01-.17-.05-.24-.03-.08-.07-.14-.13-.2-.06-.06-.12-.1-.2-.13-.07-.04-.15-.06-.24-.05-.16,0-.33.06-.44.18s-.18.27-.18.44h0Z"/>
  </g>
  <g>
    <path class="cls-1" d="M6.43,1.75c.23,2.42.26,4.85.1,7.27-.06.8,1.2.8,1.25,0,.17-2.42.13-4.85-.1-7.27-.03-.34-.26-.62-.62-.62-.31,0-.66.29-.62.62h0Z"/>
    <path class="cls-1" d="M7.41,2.08c.47-.1.96-.12,1.43-.02.27.06.73.12.66.49s-.5.6-.81.76c-.44.24-.9.46-1.35.7-.55.28-.29,1.19.32,1.16.89-.03,2.37.38,2.16,1.56-.09.5-.52.87-.95,1.1-.26.14-.53.25-.81.34-.23.08-.57.26-.81.19-.77-.25-1.1.96-.33,1.21.46.15.9,0,1.35-.14s.89-.31,1.29-.54c.72-.41,1.34-1.09,1.48-1.93s-.21-1.69-.84-2.25c-.7-.61-1.64-.83-2.55-.79l.32,1.16c1.12-.58,2.92-1.22,2.77-2.78-.16-1.65-2.47-1.69-3.68-1.43-.79.17-.45,1.38.33,1.21h0Z"/>
  </g>
  <g>
    <path class="cls-1" d="M5.36,12.67c.25,2.88.37,5.78.34,8.67,0,.8,1.24.81,1.25,0,.03-2.89-.08-5.79-.34-8.67-.07-.8-1.32-.8-1.25,0h0Z"/>
    <path class="cls-1" d="M6.97,17.75c.09-.17.14-.21.31-.24-.08.02.04,0,.07,0,.05,0,.04,0,0,0h.06s.04.03.06.03c-.04-.02-.04-.02,0,0,.05.02.09.05.14.08-.08-.06.15.16.1.1.03.04.06.09.09.14,0,.01.07.13.04.06.1.22.11.42.08.67-.06.48-.27.95-.49,1.38s-.46.82-.81,1.06c-.28.19-.4.55-.22.86.16.28.58.42.86.22.61-.42,1.03-1.01,1.34-1.68.34-.73.66-1.53.56-2.36-.09-.75-.56-1.44-1.28-1.71s-1.59.08-1.96.77c-.16.3-.07.68.22.86s.69.07.86-.22h0Z"/>
  </g>
  <path class="cls-1" d="M16.34,2.31c.12-.65-.23-1.26-.88-1.45s-1.22.17-1.64.6c-.87.89-1.46,2.1-1.69,3.31s-.17,2.66.56,3.74c.69,1.03,1.84,1.62,3.07,1.4.33-.06.52-.46.44-.77-.1-.35-.44-.5-.77-.44-.65.12-1.3-.3-1.66-.82-.46-.67-.55-1.52-.49-2.3s.3-1.52.67-2.18c.19-.34.41-.67.67-.96.11-.12.25-.3.41-.35.14-.05.08.04.1-.11-.14.79,1.06,1.12,1.21.33h0Z"/>
  <path class="cls-1" d="M12.76,16.45c-1.31.07-1.95,1.48-2.24,2.59-.17.66-.17,1.4.19,2s1,.91,1.68.96c.77.06,1.51-.29,2.18-.62.3-.15.39-.58.22-.86-.18-.31-.55-.37-.86-.22-.29.14-.54.27-.83.36s-.47.13-.79.09c.11.02-.08-.02-.08-.02-.06-.02-.12-.03-.18-.06.09.04-.08-.05-.1-.06-.04-.02-.04-.02,0,0-.03-.03-.06-.06-.09-.09l-.04-.05s.02.03-.02-.03c0,0-.09-.17-.05-.08-.03-.06-.04-.12-.06-.19-.01-.04-.02-.09-.03-.13,0,.05,0,.05,0,0-.03-.3.02-.52.11-.81.05-.16.11-.32.17-.48.01-.03.1-.23.05-.12.02-.05.05-.11.08-.16.05-.11.11-.22.18-.32.02-.03.04-.07.07-.1.04-.05.05-.06.02-.03-.03.04.08-.1.1-.11.04-.04.08-.08.12-.12-.1.08.04-.02.05-.03.1-.07-.06,0,.05-.02.03-.01.07-.02.11-.03-.07,0-.07,0,0,0,.34-.02.62-.27.62-.62,0-.32-.29-.64-.62-.62h0Z"/>
  <g>
    <path class="cls-1" d="M17.19,1.72c-.08,2.57-.01,5.14.21,7.7.03.34.27.62.62.62.32,0,.65-.29.62-.62-.22-2.56-.3-5.13-.21-7.7.03-.8-1.22-.8-1.25,0h0Z"/>
    <path class="cls-1" d="M18.54,2.08c.48-.42,1.3.29,1.58.64.47.58.68,1.34.67,2.08-.02,1.48-.92,3.48-2.4,4.02-.75.28-.42,1.49.33,1.21,2.16-.8,3.52-3.52,3.29-5.75-.11-1.08-.58-2.15-1.42-2.85s-2.05-1.02-2.95-.24c-.61.53.28,1.41.88.88h0Z"/>
  </g>
  <g>
    <path class="cls-1" d="M17,16.3c-.74.45-1,1.29-1.22,2.08-.24.86-.36,1.83.13,2.63.24.38.61.72,1.06.81.49.1.96-.09,1.3-.44.58-.59.84-1.47.89-2.28.06-.88-.19-1.81-.71-2.52-.2-.27-.54-.41-.86-.22-.27.16-.42.58-.22.86.08.11.15.22.22.34.09.16.11.21.15.34s.08.25.11.39c.01.07.03.13.04.2,0,0,.01.11,0,.05,0-.05,0,.07,0,.08.01.14.01.29,0,.43,0,.07,0,.13-.01.2,0,0-.01.11,0,.05,0-.05-.01.07-.02.08-.03.13-.06.26-.1.39-.06.18-.06.2-.14.34-.05.1-.14.25-.18.3-.05.06-.16.18-.21.19.05-.01.04,0-.03,0,.01,0,.08,0,0,0s0,0,0,0c0,0-.09-.04-.05-.01.03.02-.11-.08-.09-.06.03.03-.11-.13-.07-.07-.04-.05-.07-.11-.11-.17-.05-.08-.02-.01-.04-.1-.02-.08-.05-.15-.06-.23,0-.03-.01-.07-.02-.1,0,.07,0-.02,0-.04,0-.32.03-.6.11-.91.09-.34.19-.69.31-1.02-.03.07.04-.09.06-.12.04-.08.08-.15.13-.22.04-.06,0,0,0,0,.03-.03.06-.06.08-.09,0,0,.07-.07.03-.03-.04.03.09-.06.09-.06.29-.17.4-.56.22-.86s-.56-.4-.86-.22h0Z"/>
    <path class="cls-1" d="M17.53,13.39c.11,2.71.52,5.4,1.24,8.01.21.77,1.42.45,1.21-.33-.69-2.51-1.09-5.08-1.2-7.68-.03-.8-1.28-.81-1.25,0h0Z"/>
  </g>
  <g>
    <path class="cls-1" d="M22.75,1.54v8.06c-.02.8,1.23.81,1.24,0V1.54c.02-.8-1.23-.81-1.24,0h0Z"/>
    <path class="cls-1" d="M23.25,1.98l3.66-.58c.32-.05.53-.47.44-.77-.11-.35-.42-.49-.77-.44l-3.66.58c-.32.05-.53.47-.44.77.11.35.42.49.77.44h0Z"/>
    <path class="cls-1" d="M24.14,6.44l2.04-.41c.32-.06.54-.46.44-.77-.11-.34-.42-.51-.77-.44l-2.04.41c-.32.06-.54.46-.44.77.11.34.42.51.77.44h0Z"/>
    <path class="cls-1" d="M23.57,10.34c1.26.05,2.54-.12,3.74-.5.31-.1.54-.44.44-.77s-.43-.54-.77-.44c-1.16.37-2.19.5-3.41.45-.33-.01-.64.3-.62.62.02.35.27.61.62.62h0Z"/>
  </g>
  <path class="cls-1" d="M21.45,19.84c.92.47,2.09.19,2.6-.75.25-.46.34-1.06.1-1.55s-.75-.69-1.25-.64c-.9.09-1.76.7-2.09,1.54-.37.94.11,2.01.7,2.75.37.46.89.72,1.47.77.53.04,1.06-.13,1.56-.3.31-.11.55-.43.44-.77-.1-.3-.44-.55-.77-.44-.16.06-.32.11-.48.16-.07.02-.14.04-.21.06-.04,0-.08.02-.12.03-.04,0-.14.02-.05.01-.08,0-.16.01-.24.01-.04,0-.08,0-.12,0,.01,0,.09.02.02,0-.04,0-.08-.02-.12-.03-.01,0-.13-.04-.07-.02.06.02-.03-.02-.04-.02-.05-.03-.1-.06-.15-.09.09.06-.04-.04-.07-.06s-.05-.05-.08-.08c-.01-.01-.09-.1-.04-.05s-.03-.04-.04-.05c-.02-.02-.03-.05-.05-.07-.05-.08-.1-.16-.15-.25-.04-.06-.07-.13-.1-.2,0-.01-.06-.13-.03-.07.02.05-.02-.04-.02-.04-.03-.08-.06-.16-.08-.24-.01-.04-.02-.08-.03-.12v-.06c0,.05,0,.06,0,.01,0-.08,0-.16,0-.25,0-.07,0,0,0,.01,0-.04.02-.07.03-.11,0-.03.02-.06.03-.1-.03.11-.02.04,0,0,.04-.07.08-.13.12-.2.05-.07-.07.07,0,0,.02-.02.03-.04.05-.06.05-.05.1-.1.15-.14.02-.02.09-.06,0,0,.03-.02.06-.04.09-.06.06-.04.12-.07.18-.11.03-.02.22-.09.09-.05.06-.02.13-.05.19-.07.03,0,.07-.02.1-.02.04,0,.1,0-.02,0,.02,0,.05,0,.08,0,.08,0,.09,0,0,0,.03,0,.06.02.09.02-.04,0-.09-.07-.02,0-.04-.03-.05-.05-.08-.09.01.01.07.1,0,0,0,0,.03.1.01.03s0,.04,0,.06,0,.14,0,.05-.01.05-.02.07c0,.03-.02.07-.03.1-.03.11.03-.04,0,.02-.04.07-.07.14-.12.2.07-.1-.05.04-.08.07-.08.08-.02.01,0,0-.05.03-.09.06-.14.08,0,0-.09.04-.03.01.07-.03-.07.02-.09.02-.04,0-.07.02-.11.02.12-.02,0,0-.03,0-.04,0-.08,0-.11,0-.07,0,.08.02-.03,0-.04,0-.07-.02-.11-.03-.12-.03.06.04-.06-.03-.29-.15-.69-.09-.86.22-.15.28-.09.7.22.86h0Z"/>
  <g>
    <path class="cls-1" d="M30.42,9.61l.26-7.29c.03-.8-1.22-.8-1.25,0l-.26,7.29c-.03.8,1.22.8,1.25,0h0Z"/>
    <path class="cls-1" d="M29.47,1.29l-.1,1.5c0,.15.08.34.18.44s.29.19.44.18.33-.06.44-.18.17-.27.18-.44l.1-1.5c0-.15-.08-.34-.18-.44s-.29-.19-.44-.18-.33.06-.44.18-.17.27-.18.44h0Z"/>
    <path class="cls-1" d="M30.09,1.94l3.88-.52c.32-.04.64-.26.62-.62-.01-.3-.28-.67-.62-.62l-3.88.52c-.32.04-.64.26-.62.62.01.3.28.67.62.62h0Z"/>
    <path class="cls-1" d="M30.42,6.1c.22-.05.43-.1.65-.14.05,0,.1-.02.15-.02.03,0,.07-.01.1-.01-.07,0-.09.01-.04,0,.11-.01.22-.03.33-.04.44-.04.89-.04,1.33-.02.33.02.64-.3.62-.62-.02-.36-.27-.6-.62-.62-.96-.06-1.92.04-2.86.27-.32.08-.54.45-.44.77s.43.52.77.44h0Z"/>
  </g>
  <g>
    <path class="cls-1" d="M30.9,13.4c-.36-.77-1-1.43-1.93-1.2s-1.3,1.12-1.48,1.94c-.43,1.92-.23,3.88,0,5.81.04.34.26.62.62.62.31,0,.66-.29.62-.62-.17-1.48-.34-2.97-.2-4.45.05-.58.11-1.36.45-1.85.38-.56.66,0,.84.38.14.31.58.38.86.22.31-.18.37-.55.22-.86h0Z"/>
    <path class="cls-1" d="M27.45,19.32l.2,2.53c.03.33.27.64.62.62.32-.01.65-.28.62-.62l-.2-2.53c-.03-.33-.27-.64-.62-.62-.32.01-.65.28-.62.62h0Z"/>
    <path class="cls-1" d="M26.15,18.03c1.14.16,2.26.15,3.4-.02.32-.05.53-.47.44-.77-.11-.35-.42-.49-.77-.44-.06,0-.12.02-.18.03.13-.02-.07,0-.1.01-.12.01-.24.02-.35.03-.25.02-.49.03-.74.03s-.47,0-.71-.02c-.12,0-.24-.02-.35-.03-.07,0-.14-.01-.21-.02-.03,0-.23-.03-.1-.01-.17-.02-.32-.03-.48.06-.13.08-.25.22-.29.37-.07.29.09.72.44.77h0Z"/>
  </g>
  <g>
    <path class="cls-1" d="M39.94,2.09c.21-1.59-1.5-2.76-2.75-1.57-1.01.95-1.59,2.52-1.8,3.85s-.13,2.96.51,4.25c.6,1.21,1.96,1.89,3.17,1.03,1.3-.93,1.92-2.89,1.1-4.31-.4-.7-1.48-.07-1.08.63.49.86,0,2.39-.94,2.78-1.06.43-1.47-1.54-1.56-2.19-.17-1.19,0-2.43.47-3.54.22-.53.52-1.1.92-1.52.52-.56.78.07.71.59-.04.34.32.62.62.62.37,0,.58-.29.62-.62h0Z"/>
    <path class="cls-1" d="M38.31,6.23c.32-.02.64,0,.96.03l-.17-.02c.13.02.26.04.39.07.16.04.33.02.48-.06.13-.08.25-.22.29-.37.04-.16.03-.34-.06-.48-.09-.13-.21-.25-.37-.29-.5-.11-1.01-.16-1.52-.12-.17.01-.32.06-.44.18-.11.11-.19.29-.18.44s.06.33.18.44.28.19.44.18h0Z"/>
  </g>
  <g>
    <path class="cls-1" d="M32.19,17.51c-.63.37-.91,1.06-1.08,1.74-.21.81-.23,1.68.34,2.35.51.61,1.42.71,2.05.24.72-.53.9-1.38.79-2.23s-.3-1.73-1.01-2.23c-.27-.19-.71-.06-.86.22-.17.32-.06.65.22.86-.09-.06,0,0,.03.03.02.02.07.09,0-.01.01.02.03.04.04.06.03.04.05.09.07.13.04.06,0-.02-.01-.03.01.03.03.07.04.1.09.24.14.5.19.75.01.07.03.13.04.2,0,.03.01.07.02.1,0-.01,0-.07,0,0,.02.15.02.31.01.46,0,.07,0,.01,0,0,0,.03-.01.07-.02.1-.01.06-.03.11-.05.17-.02.09.05-.08,0,0-.01.02-.02.05-.04.07s-.03.05-.04.07c0,.01-.07.1-.03.04.04-.05-.05.06-.07.07-.01.01-.09.09-.03.04.05-.05,0,0-.02.01-.04.03-.09.05-.13.07.1-.06-.01,0-.06,0-.08.02.1,0,.02,0-.02,0-.05,0-.08,0,.1,0,.03,0-.03-.02.01,0,.09.05.03.01-.02-.01-.04-.02-.07-.04,0,0-.08-.05-.02,0,.07.05-.04-.04-.05-.05-.04-.04-.08-.12-.03-.03-.03-.05-.05-.09-.08-.13,0,0-.04-.09-.01-.02.03.07,0-.03-.01-.05-.02-.06-.04-.13-.05-.19.01.09,0-.07,0-.1,0-.07,0-.13,0-.2,0-.04,0-.09.01-.13,0,.02-.01.07,0,0,.01-.08.03-.15.05-.23.03-.15.07-.29.12-.44.02-.06.04-.12.06-.18,0-.02.02-.05.03-.07.02-.07-.04.09,0-.02s.11-.21.18-.31c0,0-.07.07-.02.03.03-.03.06-.06.09-.09,0,0,.07-.06.01-.02-.07.05.06-.04.06-.04.28-.17.41-.57.22-.86s-.55-.4-.86-.22h0Z"/>
    <path class="cls-1" d="M33.49,17.86c.03,1.85.07,3.71-.02,5.56-.02.44-.03.89-.09,1.33-.02.13-.05.24-.08.37-.02.09-.11.12-.03.11-.22.03-.58-.44-.7-.6-.21-.29-.35-.64-.4-.99-.04-.34-.26-.62-.62-.62-.31,0-.66.29-.62.62.12,1.04.63,2,1.53,2.57.98.62,1.92.02,2.12-1.04.22-1.15.18-2.39.2-3.55.02-1.25,0-2.51-.03-3.76-.01-.8-1.27-.81-1.25,0h0Z"/>
  </g>
  <g>
    <path class="cls-1" d="M41.08.87l.37,8.58c.03.8,1.28.81,1.25,0l-.37-8.58c-.03-.8-1.28-.81-1.25,0h0Z"/>
    <path class="cls-1" d="M42.1,6.09c1.2.11,2.41-.15,3.48-.7.29-.15.4-.58.22-.86-.19-.3-.54-.39-.86-.22-.11.06-.23.12-.35.17-.07.03-.07.03,0,0-.03.01-.07.03-.1.04-.05.02-.1.04-.16.06-.25.09-.51.16-.77.21-.06.01-.13.02-.19.03-.04,0-.07.01-.11.02.07,0,.08-.01.03,0-.13.01-.26.03-.39.03-.27.01-.53,0-.8-.02-.33-.03-.64.31-.62.62.02.37.28.59.62.62h0Z"/>
    <path class="cls-1" d="M45.27.6c-.06,2.77-.03,5.54.07,8.3.03.8,1.28.81,1.25,0-.1-2.77-.12-5.53-.07-8.3.02-.8-1.23-.8-1.25,0h0Z"/>
  </g>
  <g>
    <path class="cls-1" d="M36.39,13.86c.26,2.64.24,5.3-.04,7.94-.04.34.31.62.62.62.37,0,.59-.29.62-.62.28-2.64.3-5.3.04-7.94-.03-.34-.26-.62-.62-.62-.31,0-.66.29-.62.62h0Z"/>
    <path class="cls-1" d="M37.69,21.98c0-.15,0-.29.02-.44,0-.03.03-.26,0-.11,0-.05.02-.11.03-.16.05-.27.12-.54.22-.79.01-.03.03-.07.04-.1-.03.06-.03.06,0,0,.03-.07.06-.13.09-.2.06-.11.12-.23.19-.34.04-.06.08-.12.12-.18.01-.02.12-.17.08-.11s.07-.09.09-.1c.02-.02.19-.16.07-.08.04-.03.22-.1.08-.06.03-.01.06-.02.1-.03h-.07s.07,0,.1,0c-.08-.01-.09-.01-.02,0-.07-.04-.08-.04-.02,0-.06-.05-.07-.05-.02,0-.1-.13.02.04.03.07-.03-.1-.02-.03,0,.03.04.15.08.3.11.45.01.06.02.12.03.18,0,.04.01.08.02.12,0-.07,0-.06,0,.01.02.16.03.32.04.48,0,.3,0,.61-.04.91-.04.33.31.64.62.62.37-.02.59-.28.62-.62.07-.6.04-1.2-.05-1.79s-.23-1.25-.78-1.56c-.62-.34-1.35-.05-1.78.46-.38.45-.65.96-.86,1.51-.22.58-.32,1.22-.32,1.84,0,.33.29.64.62.62s.63-.27.62-.62h0Z"/>
  </g>
  <g>
    <path class="cls-1" d="M48.83,1.51c1.62.17,3.25.1,4.86-.15.33-.05.52-.47.44-.77-.1-.36-.43-.49-.77-.44-1.49.24-3.02.26-4.53.11-.34-.03-.62.31-.62.62,0,.37.29.59.62.62h0Z"/>
    <path class="cls-1" d="M50.34,1.36c.07,2.35.04,4.69-.09,7.04-.05.8,1.2.8,1.25,0,.13-2.34.16-4.69.09-7.04-.02-.8-1.27-.81-1.25,0h0Z"/>
    <path class="cls-1" d="M48.92,9.27c1.56.15,3.13.15,4.69,0,.34-.03.62-.27.62-.62,0-.31-.29-.66-.62-.62-1.56.14-3.13.14-4.69,0-.34-.03-.62.31-.62.62,0,.36.29.59.62.62h0Z"/>
  </g>
  <g>
    <path class="cls-1" d="M42.31,18.78c-.06.57-.09,1.14-.1,1.71,0,.45,0,.92.16,1.35.18.48.53.92,1.05,1.03.66.14,1.23-.18,1.73-.58.26-.2.23-.67,0-.88-.27-.25-.61-.22-.88,0,.09-.07-.06.04-.06.04-.03.02-.07.04-.1.07-.05.03-.1.06-.15.09-.1.05.02,0-.04.02-.05.01-.09.03-.14.04.09-.02.03-.01-.03,0-.07.02.09,0-.03,0-.07-.02-.07-.02-.02,0,.05.02.05.02,0,0,0,0-.07-.04-.07-.04,0,.01.11.08,0,0-.08-.07.04.08,0,.02-.02-.03-.04-.06-.05-.09-.01-.02-.07-.13-.02-.04s0-.03-.02-.05c-.03-.08-.05-.16-.06-.24,0-.03-.02-.08-.02-.11,0,.07.01.1,0,0,0-.08-.01-.15-.01-.23,0-.22,0-.44,0-.66.01-.48.04-.96.09-1.44.03-.33-.31-.64-.62-.62-.37.02-.59.28-.62.62h0Z"/>
    <path class="cls-1" d="M42.04,16.32c.02.06.04.12.07.17,0,0,0,0,0,.01.03.05.07.09.11.14,0,0,0,0,.01.01,0,0,0,0,0,0,.02.02.04.03.07.05.02.02.04.03.07.05,0,0,.02.01.03.02.05.02.11.05.16.07,0,0,0,0,.01,0,.06.01.13.02.19.03,0,0,0,0,.01,0,.03,0,.06,0,.09-.01.02,0,.06,0,.09-.01,0,0,0,0,.01,0,.03,0,.06-.03.08-.03.02-.01.06-.02.08-.03.07-.04.13-.09.18-.16.06-.06.09-.13.11-.21.03-.08.03-.17.01-.25,0-.08-.03-.16-.07-.23l-.1-.13c-.08-.08-.17-.13-.28-.16l-.17-.02c-.11,0-.22.03-.32.09,0,0,0,0,0,0l.15-.06s-.02,0-.03,0l.17-.02s-.02,0-.03,0l.17.02s-.02,0-.03,0l.15.06s-.02-.01-.03-.02l.13.1s-.02-.01-.02-.02l.1.13s-.01-.02-.02-.03l.06.15s0-.01,0-.02c-.02-.08-.06-.15-.11-.21-.04-.07-.1-.12-.18-.16-.07-.05-.15-.07-.23-.07-.08-.02-.17-.01-.25.01l-.15.06c-.09.06-.17.13-.22.22l-.06.15c-.03.11-.03.22,0,.33h0Z"/>
  </g>
  <g>
    <path class="cls-1" d="M55.79,5.62c-.25,1.2-.17,2.64.62,3.63s2.09.83,2.83-.14c.78-1.03.92-2.43,1.03-3.67.13-1.41.13-2.84.02-4.25-.07-.8-1.32-.8-1.25,0,.09,1.05.11,2.1.06,3.15s-.11,2.07-.4,3.05c-.13.45-.67,1.81-1.29,1.1-.57-.64-.57-1.76-.41-2.54s-1.04-1.12-1.21-.33h0Z"/>
    <path class="cls-1" d="M56.57,1.72c1.98-.11,3.97-.1,5.95.04.34.02.62-.3.62-.62,0-.36-.29-.6-.62-.62-1.98-.14-3.97-.15-5.95-.04-.8.04-.81,1.3,0,1.25h0Z"/>
  </g>
  <g>
    <path class="cls-1" d="M48.14,19.36c.18,1.39.2,2.8.04,4.2-.03.26-.06.53-.13.79-.04.16-.12.35-.19.41.07-.05.05.03,0-.01-.1-.08-.2-.15-.3-.25-.18-.2-.33-.44-.43-.69-.12-.32-.42-.53-.77-.44-.3.08-.56.45-.44.77.28.75.84,1.64,1.68,1.83s1.43-.5,1.64-1.25c.22-.81.26-1.72.28-2.56.03-.94-.02-1.87-.14-2.8-.04-.33-.26-.62-.62-.62-.3,0-.67.29-.62.62h0Z"/>
    <path class="cls-1" d="M49.4,16.85s0-.01,0-.02l.02.17s0-.02,0-.04l-.02.17s0-.03.01-.04l-.06.15s.01-.02.02-.03l-.1.13s.02-.02.03-.03l-.13.1s.02-.01.03-.02l-.15.06s0,0,.01,0c.08-.02.15-.06.21-.11.07-.04.12-.1.16-.18.05-.07.07-.15.07-.23.02-.08.01-.17-.01-.25l-.06-.15c-.06-.09-.13-.17-.22-.22l-.15-.06c-.11-.03-.22-.03-.33,0,0,0,0,0-.01,0l-.15.06s0,0,0,0c0,0,0,0,0,0,0,0,0,0-.01,0-.05.03-.09.07-.14.1,0,0-.01.01-.02.02l-.1.13s0,0,0,0c0,0,0,0,0,0,0,0,0,0,0,.01-.03.06-.05.11-.07.17,0,0,0,0,0,.01-.01.06-.02.12-.02.18,0,0,0,.02,0,.03,0,0,0,0,0,0l.02.17s0,0,0,0c0,0,0,.01,0,.02.02.08.06.15.11.21.04.07.1.12.18.16.07.05.15.07.23.07.08.02.17.01.25-.01l.15-.06c.09-.06.17-.13.22-.22l.06-.15c.03-.11.03-.22,0-.33h0Z"/>
  </g>
  <g>
    <path class="cls-1" d="M64.01.81l-.02,8.35c0,.8,1.25.81,1.25,0l.02-8.35c0-.8-1.25-.81-1.25,0h0Z"/>
    <path class="cls-1" d="M65.18,6.49c1.33-1.67,2.74-3.29,4.22-4.83.56-.58-.33-1.47-.88-.88-1.48,1.55-2.89,3.16-4.22,4.83-.21.26-.26.63,0,.88.22.22.67.27.88,0h0Z"/>
    <path class="cls-1" d="M65.9,4.66c.45.59.75,1.26,1.01,1.94.3.79.6,1.58.89,2.37.12.32.42.53.77.44.3-.08.56-.45.44-.77-.31-.81-.61-1.63-.92-2.44-.29-.76-.61-1.51-1.11-2.16-.2-.27-.54-.41-.86-.22-.26.15-.43.59-.22.86h0Z"/>
  </g>
  <g>
    <path class="cls-1" d="M51.6,13.59l-.04,8.57c0,.8,1.25.81,1.25,0l.04-8.57c0-.8-1.25-.81-1.25,0h0Z"/>
    <path class="cls-1" d="M53.04,21.16l.09-.09c.06-.06.1-.12.13-.2.04-.07.06-.15.05-.24,0-.09-.01-.17-.05-.24-.03-.08-.07-.14-.13-.2l-.13-.1c-.1-.06-.2-.08-.32-.09l-.17.02c-.11.03-.2.08-.28.16l-.09.09c-.06.06-.1.12-.13.2-.04.07-.06.15-.05.24,0,.09.01.17.05.24.03.08.07.14.13.2l.13.1c.1.06.2.08.32.09l.17-.02c.11-.03.2-.08.28-.16h0Z"/>
    <path class="cls-1" d="M52.78,21.35l2.41-2.91c.21-.25.26-.64,0-.88-.23-.21-.66-.27-.88,0l-2.41,2.91c-.21.25-.26.64,0,.88.23.21.66.27.88,0h0Z"/>
    <path class="cls-1" d="M52.6,20.73c.58.46,1.09.99,1.55,1.57l-.1-.13c.1.13.19.26.29.39s.21.24.37.29c.15.04.35.02.48-.06.27-.17.42-.57.22-.86-.54-.78-1.19-1.49-1.93-2.08-.13-.11-.26-.18-.44-.18-.15,0-.34.07-.44.18s-.19.28-.18.44c0,.15.06.34.18.44h0Z"/>
  </g>
  <g>
    <path class="cls-1" d="M70.95.72c.1,2.9.16,5.8.18,8.71,0,.8,1.26.81,1.25,0-.02-2.9-.08-5.81-.18-8.71-.03-.8-1.28-.81-1.25,0h0Z"/>
    <path class="cls-1" d="M72.02,9.96c.96.05,1.92.02,2.87-.08.32-.03.64-.26.62-.62-.01-.31-.28-.66-.62-.62-.95.1-1.91.13-2.87.08-.33-.02-.64.3-.62.62.02.35.27.61.62.62h0Z"/>
  </g>
  <path class="cls-1" d="M77.72,9.59c.25-1.44.54-2.86.88-4.28.3-1.26.5-2.71,1.23-3.8l-1.16-.32c.12,1.01.2,2.04.4,3.04.15.75.51,2.22,1.48,2.24.91.02,1.27-1.32,1.48-2.01.27-.88.43-1.79.92-2.58h-1.08c.53,1.17.47,2.51.62,3.76.16,1.36.46,2.69.9,3.98.26.76,1.47.43,1.21-.33-.45-1.33-.77-2.71-.9-4.11s-.18-2.68-.74-3.94c-.2-.45-.85-.36-1.08,0-.4.65-.63,1.38-.83,2.11-.09.34-.19.68-.3,1.02-.07.22-.27.83-.4.91l.32-.09c.1.05.11.02,0-.1-.04-.08-.08-.16-.12-.25-.07-.16-.12-.33-.16-.5-.09-.31-.14-.63-.19-.95-.11-.74-.18-1.49-.27-2.23-.07-.6-.8-.87-1.16-.32-.76,1.15-1,2.62-1.31,3.94-.35,1.47-.65,2.95-.92,4.44-.14.79,1.07,1.12,1.21.33h0Z"/>
  <path class="cls-1" d="M63.33,18.18c-.07,1.14-.03,2.28.12,3.41.04.32.26.64.62.62s.58-.28.62-.62c0,.08,0-.06.01-.07,0-.06.02-.11.03-.17.02-.11.05-.23.07-.34.05-.23.12-.45.2-.67.14-.39.34-.8.59-1.19.03-.05.06-.1.1-.15-.05.07.02-.01.04-.04.03-.05,0,0-.05.02l-.28-.03c-.12-.14-.16-.18-.12-.1.03.04-.01-.1,0,.01,0,.13,0-.1,0,.02.02.13.03.26.05.39.07.54.13,1.07.2,1.61.04.31.21.57.54.61.28.04.63-.14.69-.45.04-.23.09-.47.17-.69.08-.24.13-.39.22-.58.1-.21.22-.42.35-.62.06-.09.13-.19.19-.28.03-.04,0,.01.04-.06.05-.05.06-.06.03-.04-.08.05-.18.06-.28.03-.1-.04-.15-.1-.21-.17-.05-.06.01.04.02.07.05.15,0-.1,0,.02,0,.06.01.13.02.19.02.27.04.54.05.81.02.56.01,1.11-.02,1.67-.02.33.3.64.62.62.35-.02.6-.27.62-.62.04-.7.04-1.4,0-2.09-.04-.63-.04-1.54-.82-1.71s-1.27.74-1.57,1.3-.52,1.18-.63,1.81l1.23.17c-.08-.68-.16-1.36-.25-2.04-.05-.37-.13-.72-.46-.95-.38-.26-.85-.15-1.18.14-.24.21-.4.51-.56.78-.16.29-.3.59-.43.9-.25.6-.39,1.23-.47,1.88h1.25c-.15-1.13-.19-2.27-.12-3.41.02-.33-.3-.64-.62-.62-.36.02-.6.27-.62.62h0Z"/>
  <path class="cls-1" d="M86.99,9.93c.05-1.39.14-2.78.29-4.17.07-.66.15-1.33.24-1.99.05-.33.1-.66.15-.99.03-.19.06-.38.09-.58.01-.08.03-.16.04-.25.04-.13.04-.14-.01-.05l-.32.09h.09c-.2-.15-.4-.3-.6-.45.38,1.59.82,3.16,1.34,4.7.26.77.53,1.54.82,2.3.23.59.54,1.24,1.23,1.37,1.75.31,1.49-2.48,1.47-3.47-.03-1.65.08-3.29.37-4.91.14-.79-1.07-1.12-1.21-.33-.24,1.35-.38,2.72-.41,4.09-.02.69.02,1.39.01,2.08,0,.34,0,.7-.05,1.03-.01.06-.09.23-.07.27,0,0,.05.27.12.02,0-.03-.29-.56-.32-.63-.12-.3-.23-.61-.34-.92-.24-.66-.47-1.33-.68-2.01-.41-1.3-.77-2.61-1.08-3.93-.07-.28-.33-.44-.6-.46-.86-.05-.98.9-1.08,1.54-.14.85-.25,1.71-.36,2.56-.2,1.69-.33,3.38-.39,5.08-.03.8,1.22.8,1.25,0h0Z"/>
  <path class="cls-1" d="M70.93,18.21c-.06,1.17-.03,2.35.09,3.52.03.31.21.57.54.61.3.04.6-.15.69-.45.15-.55.27-.83.56-1.33.06-.1.12-.2.18-.29.04-.06.08-.11.11-.16.01-.02.13-.18.06-.08.15-.2.32-.38.5-.56.04-.04.08-.08.12-.12.03-.03.05-.05.08-.08-.03.04-.07.05-.12.05-.16.04-.31-.01-.39-.15.07.11-.03-.12.01.01.03.12.05.25.07.38-.01-.1.01.11.01.11,0,.07.02.14.02.2.06.61.09,1.23.07,1.85,0,.33.29.64.62.62s.62-.27.62-.62c.02-.73-.02-1.46-.11-2.19-.04-.35-.07-.72-.27-1.02-.29-.42-.82-.54-1.26-.25-.28.18-.51.45-.73.7s-.43.53-.61.82c-.34.55-.6,1.15-.77,1.77l1.23.17c-.12-1.17-.15-2.34-.09-3.52.02-.33-.3-.64-.62-.62-.35.02-.61.27-.62.62h0Z"/>
  <path class="cls-1" d="M96.6.36c-1.1,1.29-1.89,2.83-2.24,4.49-.29,1.39-.44,3.14.4,4.37.92,1.34,2.64,1.37,3.85.4,1.31-1.05,1.48-2.9,1.48-4.47,0-1.87-.6-3.87-2.51-4.58-.76-.28-1.08.93-.33,1.21,1.19.44,1.54,1.85,1.58,2.98s.06,2.68-.74,3.63c-.65.77-1.83.99-2.37,0s-.37-2.22-.16-3.22c.3-1.45.96-2.81,1.92-3.94.52-.61-.36-1.5-.88-.88h0Z"/>
  <path class="cls-1" d="M77.84,17.78c-.66.53-.98,1.43-1.15,2.23-.19.93-.06,1.96.82,2.5.76.46,1.75.31,2.34-.35.53-.6.74-1.45.69-2.24-.04-.56-.19-1.12-.57-1.55-.34-.39-.89-.66-1.41-.59-.32.04-.64.26-.62.62.01.3.28.67.62.62.03,0,.25,0,.12-.02.03,0,.06.01.08.02.02,0,.13.04.06.01-.06-.02.02.01.03.02.03.02.07.04.1.06-.08-.05,0,0,.01,0,.04.03.07.07.1.1.05.05,0,0,0-.01.02.03.05.07.07.1s.04.07.06.11c-.01-.03-.03-.09,0,.03.02.07.04.14.06.21,0,.03.01.06.02.09.04.2,0-.06,0,.06.01.15.02.3.01.46,0,.06-.01.12-.01.18,0,.1.02-.1,0,0,0,.04-.02.09-.02.13-.03.12-.06.24-.1.36-.04.11,0,.02,0,0-.01.03-.03.06-.04.09-.03.06-.07.12-.1.18-.02.03-.04.06-.06.08.02-.02.08-.09,0,0-.04.04-.09.08-.13.12-.05.06.08-.03,0,0-.02,0-.04.03-.06.04-.03.02-.06.03-.09.05.08-.04.04-.02-.02,0-.05.02-.19.03-.07.02-.07,0-.14,0-.21,0,.01,0,.1.02.03,0-.03,0-.07-.02-.1-.02-.03,0-.05-.02-.08-.02-.15-.05.09.06-.05-.02-.03-.02-.16-.11-.11-.07.04.04-.07-.07-.09-.1.08.09-.04-.07-.06-.11,0,0-.04-.09-.02-.04.02.07-.02-.08-.03-.1,0-.04-.02-.08-.03-.12,0,.01,0,.09,0,.02,0-.08,0-.16,0-.24,0-.07,0-.15.02-.22-.01.1.02-.11.03-.14.04-.18.09-.36.14-.54.02-.08.05-.15.08-.23.01-.04.03-.08.04-.11.04-.1,0,.01.02-.05.07-.16.15-.3.25-.45,0-.02.07-.09,0-.02.02-.03.05-.06.08-.09.07-.07.14-.14.22-.2.26-.21.23-.67,0-.88-.27-.25-.61-.22-.88,0h0Z"/>
  <g>
    <path class="cls-1" d="M102.02,2.09l.11,7.76c.01.8,1.26.81,1.25,0l-.11-7.76c-.01-.8-1.26-.81-1.25,0h0Z"/>
    <path class="cls-1" d="M103.24,2.39s.14-.2.07-.12c.05-.06.11-.11.17-.16-.08.07.04-.03.06-.04s.23-.11.12-.07c.06-.02.11-.04.17-.05.03,0,.25-.04.13-.03.08,0,.16,0,.24,0,.13,0-.06-.03.07,0,.08.02.16.04.23.07-.09-.04.07.04.08.05.02.01.2.14.14.09.07.06.12.12.18.18.08.08,0-.02.06.08.05.07.09.15.13.22.06.11,0-.02.04.09.03.08.05.16.07.25,0,.04.02.08.02.13,0-.05,0-.05,0,0,0,.08,0,.16,0,.25,0,.05,0,.09-.01.14,0-.05,0-.04-.01.04-.02.07-.03.14-.05.21-.08.26-.26.55-.46.75-.43.44-1.07.69-1.66.74-.34.03-.62.27-.62.62,0,.31.29.66.62.62,1.52-.14,3.06-1.05,3.38-2.65.15-.73.02-1.52-.43-2.12s-1.09-1-1.85-1.01-1.58.4-1.97,1.09c-.17.29-.07.68.22.86s.69.07.86-.22h0Z"/>
  </g>
  <g>
    <path class="cls-1" d="M83.97,17.87c-.54.65-1.04,1.41-1.23,2.24s-.05,1.77.65,2.34,1.72.54,2.34-.15.68-1.61.56-2.47-.52-1.64-1.27-2.04c-.29-.15-.69-.08-.86.22-.15.29-.08.69.22.86.06.03.11.07.16.1.06.03,0,0-.02-.02.02.02.04.03.06.05.05.04.09.09.13.13,0,0,.06.08.02.02-.05-.06.04.05.04.07.03.05.06.09.08.14.01.02.08.18.06.12-.03-.07,0,.02,0,.03.01.04.02.07.04.1.02.06.04.12.05.19s.03.13.04.19c0,.03,0,.06.01.08.02.1,0-.1,0,0,0,.13.02.26.02.39,0,.08,0,.16,0,.24,0,.02-.02.18-.01.11-.01.08-.03.16-.05.23s-.05.15-.06.17c-.03.05-.06.11-.09.16-.05.08.06-.06,0,.01-.02.02-.04.04-.06.07-.02.02-.13.11-.05.05-.03.02-.21.11-.11.07-.04.01-.07.02-.11.03-.01,0-.1.01-.03,0,.08,0-.19-.03-.02,0-.05,0-.1-.03-.16-.04.01,0,.09.05.02.01-.04-.02-.08-.04-.12-.07-.09-.06.03.04-.05-.04-.03-.03-.05-.05-.08-.08,0,0-.07-.07-.02-.02s-.01-.02-.02-.03c-.02-.03-.04-.06-.06-.1-.01-.02-.03-.05-.04-.08-.04-.08.03.13-.01-.03-.02-.06-.03-.12-.04-.17,0,.01,0,.07,0,0,0-.04,0-.09,0-.14,0-.07,0-.14,0-.2,0-.11-.01.07,0-.04,0-.05.02-.09.03-.13.08-.36.18-.58.36-.9s.37-.6.56-.82c.21-.25.26-.64,0-.88-.23-.21-.66-.27-.88,0h0Z"/>
    <path class="cls-1" d="M82.35,17.98c.29,2.24.36,4.51.21,6.77-.05.8,1.2.8,1.25,0,.15-2.26.08-4.52-.21-6.77-.04-.33-.26-.62-.62-.62-.3,0-.67.29-.62.62h0Z"/>
  </g>
  <g>
    <path class="cls-1" d="M110.67.81c-.75-.03-1.25.83-1.6,1.38-.41.64-.74,1.32-1.01,2.03-.52,1.35-.97,3.02-.1,4.33s2.49,1.46,3.68.49,1.58-2.61,1.73-4c.17-1.56-.05-3.8-1.89-4.25-.78-.19-1.11,1.01-.33,1.21,1.32.32,1.1,2.5.91,3.49-.2,1.05-.73,2.94-2.1,2.96-.52,0-.91-.4-1.1-.86-.26-.64-.12-1.37.06-2.01.19-.67.45-1.33.77-1.95.16-.31.34-.62.53-.91.09-.14.19-.27.29-.4.05-.07.11-.14.17-.2.1-.09.1-.1,0-.05.8.04.8-1.21,0-1.25h0Z"/>
    <path class="cls-1" d="M110.42,6.79c.37.5.71,1.01,1.01,1.55.15.27.29.54.42.81.07.14.13.28.2.43,0,.02.1.23.05.12.03.07.06.15.09.22.12.3.42.55.77.44.29-.09.57-.44.44-.77-.49-1.22-1.12-2.37-1.9-3.43-.2-.26-.55-.42-.86-.22-.26.17-.43.58-.22.86h0Z"/>
  </g>
  <g>
    <path class="cls-1" d="M89.72,17.65c-1.28.87-1.9,2.58-1.41,4.07.14.41.34.87.73,1.12.48.3,1.04.12,1.48-.18.7-.48,1.23-1.24,1.35-2.09.15-1.01-.18-2.04-.92-2.75-.24-.24-.64-.24-.88,0s-.24.65,0,.88c.2.19.34.39.44.63.03.06.09.26.11.38,0,.03.03.22.02.12,0,.08.01.17.01.25,0,.07,0,.15-.01.22s0,0,0,0c0,.04-.01.08-.02.12-.02.07-.03.14-.06.21,0,.03-.02.06-.03.09-.06.18.03-.05-.02.05-.06.13-.13.26-.21.38-.02.03-.04.05-.05.08.05-.07,0,0-.02.02-.06.06-.11.12-.17.18-.03.03-.06.06-.09.08,0,0-.08.07-.03.03s-.04.03-.04.03c-.03.02-.07.05-.1.07-.06.04-.12.08-.19.11s-.02,0,0,0c-.1.03-.04,0,.04.03l.07.02s.04.04,0,0c0,0-.04-.03,0,.01-.05-.05-.08-.12-.11-.18-.02-.03-.09-.19-.04-.08-.03-.07-.05-.14-.07-.21-.04-.12-.07-.25-.09-.38.02.12,0-.04,0-.08,0-.07,0-.15,0-.22,0-.07,0-.13,0-.2,0-.04.02-.2.01-.14s.02-.1.03-.14c.02-.07.03-.15.05-.22s.04-.14.07-.21c.01-.03.03-.07.04-.1-.02.06-.02.04,0,0,.07-.13.14-.26.22-.39.02-.03.04-.06.06-.09-.05.07,0,0,.02-.03.05-.06.1-.11.15-.16s.11-.1.16-.15c.02-.02.04-.04.06-.05-.1.08.04-.03.05-.03.28-.19.4-.55.22-.86-.16-.28-.58-.42-.86-.22h0Z"/>
    <path class="cls-1" d="M91.11,17.99c-.12,2.7-.13,5.41-.05,8.12.03.8,1.28.81,1.25,0-.09-2.71-.07-5.41.05-8.12.03-.8-1.22-.8-1.25,0h0Z"/>
  </g>
  <g>
    <path class="cls-1" d="M117.2,1.84v-.08c0-.09-.01-.17-.05-.24-.03-.08-.07-.14-.13-.2-.06-.06-.12-.1-.2-.13-.07-.04-.15-.06-.24-.05l-.17.02c-.11.03-.2.08-.28.16l-.1.13c-.06.1-.08.2-.09.32v.08c0,.09.01.17.05.24.03.08.07.14.13.2.06.06.12.1.2.13.07.04.15.06.24.05l.17-.02c.11-.03.2-.08.28-.16l.1-.13c.06-.1.08-.2.09-.32h0Z"/>
    <g>
      <path class="cls-1" d="M116.01,2.32c-.02,2.26-.03,4.52-.05,6.78,0,.8,1.24.81,1.25,0,.02-2.26.03-4.52.05-6.78,0-.8-1.24-.81-1.25,0h0Z"/>
      <path class="cls-1" d="M117.33,2.3c.17-.09.48-.02.75.09.19.08.49.27.66.42.42.38.67.85.67,1.38,0,.24-.06.53-.16.73-.06.13-.15.27-.21.34-.1.11-.22.22-.29.27-.27.19-.48.27-.81.33-.22.04-.53.01-.78-.06-.32-.1-.68.12-.77.44s.11.67.44.77c1.46.44,3.06-.32,3.63-1.73s-.1-2.88-1.28-3.7c-.71-.49-1.67-.77-2.47-.35-.3.15-.39.58-.22.86.18.3.55.38.86.22h0Z"/>
      <path class="cls-1" d="M117.04,6.92c.27.24.53.5.78.77.12.13.25.27.36.41.07.08.13.15.19.23.03.03.05.06.08.09.07.08,0-.01.03.04.44.58.83,1.2,1.15,1.85.15.29.58.4.86.22.3-.19.38-.54.22-.86-.69-1.38-1.65-2.62-2.79-3.65-.24-.22-.65-.26-.88,0-.22.24-.26.65,0,.88h0Z"/>
      <path class="cls-1" d="M115.96,8.77c-.05.54,0,1.09.1,1.62.03.15.16.3.29.37.13.08.33.11.48.06s.3-.14.37-.29c.08-.16.1-.31.06-.48-.02-.1-.04-.2-.05-.3l.02.17c-.05-.38-.06-.77-.03-1.15.01-.15-.08-.34-.18-.44s-.29-.19-.44-.18-.33.06-.44.18-.17.27-.18.44h0Z"/>
      <path class="cls-1" d="M116.84,2.54c.8,0,.81-1.25,0-1.25s-.81,1.25,0,1.25h0Z"/>
      <path class="cls-1" d="M116.58,2.7c.8,0,.81-1.25,0-1.25s-.81,1.25,0,1.25h0Z"/>
    </g>
  </g>
  <path class="cls-1" d="M95.27,17.7c.11,1.4.14,2.81.1,4.22h1.25c0-.8.17-1.64.48-2.36.17-.39.38-.76.62-1.1.03-.05.07-.1.11-.15-.04.05.01-.01.03-.03.06-.06.05-.02,0-.02-.03,0-.07.01-.1.02-.08.01-.07-.07-.03,0-.03-.05-.02-.02.01.02.03.03.06.06.08.09-.07-.07.05.07.05.07.19.28.55.4.86.22.27-.16.42-.58.22-.86-.37-.54-.97-1.03-1.66-.69-.29.15-.48.41-.66.67-.16.23-.3.46-.43.71-.55,1.04-.84,2.2-.84,3.38,0,.34.29.62.62.62s.61-.29.62-.62c.05-1.41.02-2.81-.1-4.22-.03-.34-.27-.62-.62-.62-.32,0-.65.29-.62.62h0Z"/>
  <path class="cls-1" d="M125.93,1.55c-1.41-.37-2.68.52-3.37,1.69-.34.57-.75,1.33-.73,2.01s.48,1.15,1.06,1.39c.63.26,1.31.08,1.94.28.47.15.8.61.84,1.1.12,1.31-1.36,1.89-2.43,1.6-.78-.21-1.11.99-.33,1.21,1.29.35,2.72-.02,3.51-1.15.72-1.03.65-2.47-.26-3.37-.48-.47-1.07-.66-1.73-.7-.35-.02-1.37.09-1.35-.47.01-.29.23-.64.36-.9.16-.31.34-.62.58-.89.4-.44.98-.75,1.58-.59.78.2,1.11-1,.33-1.21h0Z"/>
  <g>
    <path class="cls-1" d="M104.13,18.3c-.18-.73-.88-1.22-1.62-1.25s-1.41.44-1.78,1.04c-.21.35-.32.77-.21,1.17s.38.66.69.89c.23.17.49.31.66.47.22.2.35.38.4.65-.02-.09,0,.09,0,.12,0,.03,0,.06,0,.1.01-.1-.02.03-.02.05-.02.07,0,.01,0,0,0,.01-.08.14-.05.1.02-.03-.13.11-.03.04-.03.02-.06.04-.1.06.07-.03.04,0,0,0,0,0-.1.02-.03,0,.08-.01-.08,0-.08,0,.15,0-.09-.02-.02,0,.07.01-.05-.05,0,0,.05.06-.06-.07-.05-.06-.22-.26-.66-.23-.88,0-.25.25-.22.63,0,.88.44.52,1.28.56,1.83.19.62-.42.83-1.26.61-1.96s-.77-1.16-1.36-1.55c-.05-.04-.11-.07-.16-.11-.01,0-.09-.07-.03-.02-.02-.02-.05-.04-.07-.06s-.04-.04-.07-.07c0,0,.05.07,0,0-.02-.02-.03-.05-.05-.08.04.09.01-.04,0,0-.01.09,0-.02.02-.06.01-.03.02-.04.05-.11.08-.14.09-.15.23-.27.05-.05.01-.01,0,0,.04-.03.09-.06.13-.09.03-.02.06-.03.08-.05-.06.03,0,0,.03,0,.03,0,.06-.02.09-.03.04,0,.04-.01,0,0h.06s.06,0,.09,0c.1,0-.08-.02.02,0,.03,0,.06.02.09.02l.06.02s-.05-.02,0,0c.03.02.17.11.1.06.02.02.04.04.07.06.08.08-.09-.11.03.04,0,0,.05.09.02.03-.02-.05.03.1.03.1.08.33.45.52.77.44s.52-.44.44-.77h0Z"/>
    <path class="cls-1" d="M100.46,22.15c.12.06.23.14.33.22l-.13-.1c.17.13.32.28.45.45.06.06.12.1.2.13.07.04.15.06.24.05.09,0,.17-.01.24-.05.08-.03.14-.07.2-.13.11-.12.19-.28.18-.44l-.02-.17c-.03-.11-.08-.2-.16-.28-.11-.14-.23-.26-.36-.38-.17-.14-.35-.28-.55-.39-.14-.08-.32-.11-.48-.06-.08.02-.15.06-.21.11-.07.04-.12.1-.16.18-.08.15-.12.32-.06.48s.14.29.29.37h0Z"/>
  </g>
  <g>
    <path class="cls-1" d="M129.96,2.57c.16,2.52.23,5.05.21,7.58,0,.8,1.24.81,1.25,0,.02-2.53-.05-5.06-.21-7.58-.05-.8-1.3-.8-1.25,0h0Z"/>
    <path class="cls-1" d="M128.26,3c.9-.21,1.83-.07,2.74.05.96.12,1.92.2,2.87-.02.78-.18.45-1.39-.33-1.21-.9.21-1.84.06-2.74-.05-.96-.12-1.92-.2-2.87.02-.78.18-.45,1.39.33,1.21h0Z"/>
  </g>
  <g>
    <path class="cls-1" d="M106.89,14.3c0,1.93-.08,3.87,0,5.8.03.75.13,1.79.71,2.34.88.83,1.76-.53,2.25-1.11s-.36-1.5-.88-.88c-.16.19-.33.38-.49.57-.07.08-.13.15-.2.23-.04.05-.09.11-.14.16-.05.05-.06.06,0,.02l.32.09c-.14-.08-.21-.56-.24-.68-.05-.24-.06-.48-.07-.73-.02-.62,0-1.24,0-1.86v-3.94c.01-.8-1.24-.81-1.24,0h0Z"/>
    <path class="cls-1" d="M105.71,18.36c1.11.32,2.27.36,3.4.13.32-.07.54-.46.44-.77-.11-.34-.43-.51-.77-.44-.13.03-.26.05-.39.07.14-.02-.04,0-.06,0-.06,0-.11.01-.17.02-.25.02-.51.02-.76.01-.12,0-.24-.01-.37-.03-.06,0-.11-.01-.17-.02.14.02-.06-.01-.09-.01-.25-.04-.5-.1-.74-.17-.31-.09-.69.11-.77.44s.1.67.44.77h0Z"/>
  </g>
  <path class="cls-1" d="M135.23,2.05c0,1.44.04,2.87.11,4.31.06,1.25,0,2.73.92,3.71.86.93,2.21.82,3.14.06.98-.8,1.23-2.15,1.38-3.34.2-1.54.1-3.09-.25-4.6-.18-.78-1.39-.45-1.21.33.32,1.39.39,2.83.21,4.25-.13.97-.42,2.63-1.66,2.73-1.32.11-1.23-2.09-1.27-2.91-.08-1.51-.12-3.03-.12-4.54,0-.8-1.25-.81-1.25,0h0Z"/>
  <path class="cls-1" d="M111.16,17.76c-.05.74-.04,1.48.04,2.21.07.65.14,1.37.62,1.87.52.54,1.36.56,1.98.18s.92-1.05,1.13-1.71c.26-.81.45-1.64.46-2.49,0-.34-.29-.62-.62-.62-.36,0-.6.29-.62.62-.1,1.55,0,3.1.25,4.64.06.33.47.52.77.44.35-.1.49-.43.44-.77-.24-1.42-.3-2.87-.21-4.3h-1.25c-.01.74-.19,1.46-.41,2.16-.09.3-.17.53-.36.78.01-.01-.09.09-.11.12-.02.02-.04.03-.12.08-.1.07.02,0-.1.05-.04.01-.08.02-.13.03.05,0,.05,0,0,0-.03,0-.06,0-.1,0,.06,0,.05,0-.02-.01.09.04-.07-.04-.08-.05.09.06-.04-.05-.05-.07.06.08-.05-.11-.06-.13.04.09-.02-.07-.03-.09-.02-.06-.03-.12-.05-.19-.04-.17-.05-.25-.06-.41-.09-.78-.1-1.56-.05-2.34.02-.34-.3-.62-.62-.62-.36,0-.6.29-.62.62h0Z"/>
  <g>
    <path class="cls-1" d="M141.88,2.59c1.21,2.33,1.51,5.01,2.64,7.38.23.48,1.03.36,1.14-.15.53-2.4,1.21-4.76,2.04-7.07.27-.76-.93-1.08-1.21-.33-.83,2.31-1.51,4.67-2.04,7.07l1.14-.15c-1.12-2.37-1.42-5.04-2.64-7.38-.37-.71-1.45-.08-1.08.63h0Z"/>
    <path class="cls-1" d="M147.47,3.32l.43-1c.05-.07.07-.15.07-.23.02-.08.01-.17-.01-.25-.04-.14-.15-.3-.29-.37-.15-.08-.32-.12-.48-.06l-.15.06c-.09.06-.17.13-.22.22l-.43,1c-.05.07-.07.15-.07.23-.02.08-.01.17.01.25.04.14.15.3.29.37.15.08.32.12.48.06l.15-.06c.09-.06.17-.13.22-.22h0Z"/>
  </g>
  <path class="cls-1" d="M117.84,18.31c.5,1.32,1.02,2.63,1.54,3.93.16.4.52.56.92.37.42-.2.55-.65.71-1.05.17-.44.34-.88.51-1.31.34-.86.67-1.72,1.01-2.59.12-.31-.13-.69-.44-.77-.35-.1-.65.12-.77.44-.3.78-.61,1.56-.91,2.33-.15.38-.3.76-.45,1.15-.08.2-.16.4-.23.59-.1.27.02-.09-.04.11-.04.06-.04.07,0,.02.05-.03.05-.03-.02,0l.92.37c-.52-1.31-1.03-2.62-1.54-3.93-.12-.32-.42-.53-.77-.44-.3.08-.56.45-.44.77h0Z"/>
  <path class="cls-1" d="M148.89,2.01c.09,1.6.22,3.2.4,4.79.09.79.19,1.59.31,2.38.09.59.24,1.18.81,1.48.27.15.72.09.86-.22.61-1.42.53-3.06,1.25-4.42l-.98.13c.16.18.18.45.23.68.06.29.11.58.2.87.17.58.4,1.15.69,1.69.25.46.56,1.13,1.17,1.12.67-.02.91-.73,1.04-1.28.31-1.25.3-2.58.5-3.85s.5-2.62.87-3.91c.22-.77-.98-1.11-1.21-.33-.63,2.2-.97,4.43-1.2,6.71-.03.27-.06.54-.12.81-.02.07-.23.72-.21.74l.54-.12c-.04-.06-.08-.13-.12-.19-.06-.11-.13-.22-.19-.33-.12-.22-.22-.44-.32-.67-.2-.49-.33-1-.43-1.52s-.22-.92-.56-1.3c-.26-.29-.8-.22-.98.13-.73,1.39-.63,3-1.25,4.42l.86-.22c-.15-.08-.16-.29-.19-.45-.06-.32-.09-.64-.14-.97-.09-.68-.17-1.36-.24-2.05-.15-1.37-.25-2.74-.33-4.11-.04-.8-1.29-.81-1.25,0h0Z"/>
  <path class="cls-1" d="M124.56,17.48c-.07.95-.06,1.91.04,2.86.08.8.14,1.87.91,2.35.4.25.92.22,1.31-.04s.63-.66.84-1.05c.44-.82.69-1.72.76-2.65h-1.25c-.05.85.09,1.74.46,2.51s1.21,1.2,1.95.67c.65-.46.87-1.31.97-2.07.12-.86.07-1.74-.18-2.57-.22-.77-1.43-.44-1.21.33.17.58.23,1.17.18,1.77-.02.28-.07.55-.14.82s-.1.41-.27.63c.05-.06-.03.02-.05.04-.03.03-.03.03,0,0l-.05.03c.15-.04-.13.04.04,0-.08.02-.05-.04,0,0,.05.05.02.02-.01-.02-.11-.11.02.04-.07-.09-.07-.12-.09-.16-.12-.24-.21-.6-.3-1.19-.26-1.82.02-.34-.3-.62-.62-.62-.36,0-.6.29-.62.62-.05.63-.21,1.27-.49,1.84-.14.29-.32.57-.5.79-.03.04-.08.07-.02.03-.09.06-.06-.02.01.02-.15-.07.04.03.03.04-.03-.02-.06-.05-.08-.08.03.04.03.05,0,0-.09-.13-.07-.11-.12-.28-.04-.13-.06-.26-.08-.4-.05-.36-.09-.71-.12-1.07-.06-.78-.05-1.57,0-2.35.03-.34-.31-.62-.62-.62-.36,0-.6.29-.62.62h0Z"/>
  <g>
    <path class="cls-1" d="M158.39,9.61c1.15-2.77,2.47-5.47,3.96-8.08.4-.7-.68-1.33-1.08-.63-1.54,2.71-2.89,5.51-4.08,8.38-.13.31.14.68.44.77.36.1.64-.13.77-.44h0Z"/>
    <path class="cls-1" d="M157.55,1.76c1.1,2.86,2.27,5.68,3.52,8.48.14.31.58.38.86.22.32-.18.36-.55.22-.86-1.2-2.7-2.33-5.42-3.39-8.18-.29-.74-1.49-.42-1.21.33h0Z"/>
  </g>
  <g>
    <path class="cls-1" d="M163.39,1.91c.82,1.47,1.58,2.97,2.28,4.5.14.31.59.38.86.22.32-.18.36-.55.22-.86-.7-1.53-1.46-3.03-2.28-4.5-.16-.29-.57-.39-.86-.22s-.39.56-.22.86h0Z"/>
    <path class="cls-1" d="M167.07,6.25c.63-1.58,1.4-3.09,2.28-4.54.42-.69-.66-1.32-1.08-.63-.94,1.54-1.74,3.16-2.41,4.84-.12.31.14.69.44.77.36.1.64-.12.77-.44h0Z"/>
    <path class="cls-1" d="M165.7,5.83c.05,1.42.09,2.84.14,4.26.01.34.28.62.62.62s.64-.29.62-.62c-.05-1.42-.09-2.84-.14-4.26-.01-.34-.28-.62-.62-.62s-.64.29-.62.62h0Z"/>
  </g>
  <g>
    <path class="cls-1" d="M137.89,17.68c-.01.75.02,1.5.11,2.24s.22,1.43.67,2.02c.24.32.59.57,1,.59s.78-.21,1.06-.49c.49-.48.84-1.08,1.1-1.72.28-.69.4-1.45.36-2.19-.02-.34-.27-.62-.62-.62-.32,0-.64.29-.62.62.01.18.01.36,0,.54,0,.07-.01.14-.02.2,0,.08-.01.09,0,.04,0,.04-.01.09-.02.13-.03.16-.06.31-.11.46-.03.09-.05.17-.08.26,0,.03-.09.22-.06.17-.12.29-.28.57-.47.83-.08.12-.16.21-.29.35-.05.05-.09.1-.14.14.04-.03.03-.02-.03.02-.07.04-.08.04-.03.01.03,0,.06,0,.08,0-.07-.02-.08-.02-.02,0,.08.05-.06-.05-.07-.07-.05-.06-.06-.06-.02-.03-.03-.04-.05-.07-.07-.11-.05-.08-.09-.16-.13-.24.04.09-.04-.11-.04-.1-.03-.09-.05-.17-.08-.26-.04-.16-.07-.32-.09-.47-.01-.08-.01-.09,0-.04,0-.05-.01-.1-.02-.15-.01-.11-.02-.22-.03-.33-.02-.19-.03-.38-.04-.57-.02-.41-.03-.82-.02-1.23,0-.34-.29-.62-.62-.62s-.62.29-.62.62h0Z"/>
    <path class="cls-1" d="M138.02,24.17c.13,1,.29,2.38,1.54,2.5,1.09.1,1.87-.88,2.24-1.79s.42-1.93.39-2.9c-.04-1.19-.11-2.39-.17-3.58-.04-.8-1.29-.81-1.25,0,.04.91.09,1.82.13,2.73.04.76.09,1.53,0,2.28-.08.64-.29,1.37-.79,1.81-.13.12-.41.31-.57.13-.1-.12-.13-.39-.16-.53-.05-.22-.09-.44-.12-.66-.04-.33-.26-.62-.62-.62-.3,0-.67.29-.62.62h0Z"/>
  </g>
  <g>
    <path class="cls-1" d="M170.94,2.22c1.82-.09,3.64.02,5.43.36.33.06.67-.09.77-.44.08-.31-.1-.71-.44-.77-1.9-.36-3.83-.5-5.76-.41-.34.02-.62.27-.62.62,0,.33.29.64.62.62h0Z"/>
    <path class="cls-1" d="M172.06,10.36l4.85-7.3c.45-.67-.64-1.3-1.08-.63l-4.85,7.3c-.45.67.64,1.3,1.08.63h0Z"/>
    <path class="cls-1" d="M176.96,3.07s0-.02.01-.04l-.06.15c.06-.15.14-.28.24-.41l-.1.13c.1-.13.22-.25.35-.35l-.13.1s.02-.02.03-.02c.07-.04.13-.09.18-.16.06-.06.09-.13.11-.21.03-.08.03-.17.01-.25,0-.08-.03-.16-.07-.23-.09-.13-.21-.25-.37-.29l-.17-.02c-.11,0-.22.03-.32.09-.19.14-.36.29-.51.47-.08.11-.17.22-.24.33s-.12.25-.18.38c-.03.08-.03.17-.01.25,0,.08.03.16.07.23.04.07.09.13.16.18.06.06.13.09.21.11.16.04.34.03.48-.06l.13-.1c.08-.08.13-.17.16-.28h0Z"/>
    <path class="cls-1" d="M172.1,10.94c1.56-.21,3.14-.25,4.7-.15.34.02.62-.3.62-.62,0-.36-.29-.6-.62-.62-1.68-.11-3.36-.04-5.04.19-.33.05-.52.47-.44.77.1.36.43.48.77.44h0Z"/>
  </g>
  <g>
    <path class="cls-1" d="M143.93,18.45c.7-.06,1.41-.09,2.11-.1.18,0,.35,0,.53,0,.07,0,.14,0,.21,0,.13,0-.04-.03.08.01.04,0,.08.02.11.03h-.05c-.06-.08-.05-.13-.1-.21-.01-.02.03-.05-.02.03-.03.07-.07.11-.11.16-.87,1.15-1.81,2.26-2.71,3.38-.4.49-.03,1.16.61,1.04s1.28.05,1.9.08,1.33-.06,1.88-.43c.28-.19.4-.55.22-.86-.16-.28-.57-.41-.86-.22-.21.14-.42.21-.66.25s-.55.02-.81,0c-.68-.05-1.33-.15-2.01-.02l.61,1.04c.54-.67,1.08-1.35,1.62-2.02.26-.33.52-.65.78-.98s.63-.69.75-1.12c.13-.47-.04-.98-.47-1.22-.33-.19-.7-.21-1.07-.21-.85,0-1.7.03-2.55.1-.34.03-.62.27-.62.62,0,.32.29.65.62.62h0Z"/>
    <path class="cls-1" d="M144.94,20.53c.79.2,1.61.26,2.41.15.17-.02.31-.05.44-.18.11-.11.19-.29.18-.44s-.06-.33-.18-.44c-.11-.1-.28-.2-.44-.18-.52.07-1.05.07-1.58,0l.17.02c-.23-.03-.45-.07-.67-.13-.32-.08-.69.1-.77.44s.1.68.44.77h0Z"/>
  </g>
  <g>
    <path class="cls-1" d="M133.99,21.76c.88-1.56,1.82-3.09,2.81-4.59.19-.28.06-.69-.22-.86-.31-.18-.67-.06-.86.22-.99,1.5-1.93,3.03-2.81,4.59-.17.29-.07.68.22.86s.69.07.86-.22h0Z"/>
    <path class="cls-1" d="M132.89,17.28c.96,1.44,1.82,2.95,2.58,4.51.15.3.58.39.86.22.31-.18.37-.55.22-.86-.76-1.56-1.62-3.07-2.58-4.51-.19-.28-.55-.4-.86-.22-.28.16-.41.57-.22.86h0Z"/>
  </g>
  <g>
    <path class="cls-1" d="M57.94,13.62c-.14,2.33-.19,4.66-.16,7,.01.8,1.26.81,1.25,0-.03-2.33.02-4.67.16-7,.05-.8-1.2-.8-1.25,0h0Z"/>
    <g>
      <path class="cls-1" d="M57.77,20.4c.01.29.02.57.04.86.02.33.07.66.23.96.36.64,1.2.84,1.83.5.29-.16.4-.58.22-.86s-.55-.39-.86-.22c-.02.01-.04.02-.07.03l.15-.06c-.06.02-.12.04-.19.05l.17-.02c-.06,0-.13,0-.19,0l.17.02c-.06,0-.13-.03-.19-.05l.15.06c-.06-.03-.11-.06-.17-.1l.13.1s-.08-.08-.12-.12l.1.13c-.04-.05-.07-.11-.1-.17l.06.15c-.04-.11-.07-.21-.08-.33l.02.17c-.05-.36-.04-.73-.06-1.09-.01-.33-.28-.64-.62-.62-.33.01-.64.28-.62.62h0Z"/>
      <path class="cls-1" d="M59.8,22.81s.09-.02.14-.04c.09-.03.19-.07.27-.12.04-.02.08-.05.12-.07.08-.06.16-.12.23-.19.06-.06.1-.12.13-.2.04-.07.06-.15.05-.24,0-.09-.01-.17-.05-.24-.03-.08-.07-.14-.13-.2l-.13-.1c-.1-.06-.2-.08-.32-.09l-.17.02c-.11.03-.2.08-.28.16-.03.03-.06.05-.09.08l.13-.1c-.06.05-.13.09-.21.12l.15-.06c-.06.03-.12.04-.19.06-.08.02-.15.06-.21.11-.07.04-.12.1-.16.18-.05.07-.07.15-.07.23-.02.08-.01.17.01.25l.06.15c.06.09.13.17.22.22l.15.06c.11.03.22.03.33,0h0Z"/>
      <path class="cls-1" d="M60.14,22.66c.05-.06.11-.11.18-.16l-.13.1c.1-.08.22-.14.34-.2l-.15.06s.02,0,.03-.01c.08-.02.15-.06.21-.11.07-.04.12-.1.16-.18.05-.07.07-.15.07-.23.02-.08.01-.17-.01-.25l-.06-.15c-.06-.09-.13-.17-.22-.22l-.15-.06c-.11-.03-.22-.03-.33,0-.15.06-.3.12-.44.22-.09.06-.17.12-.25.19-.04.04-.09.08-.13.12-.06.06-.1.12-.13.2-.04.07-.06.15-.05.24,0,.09.01.17.05.24.03.08.07.14.13.2l.13.1c.1.06.2.08.32.09l.17-.02c.11-.03.2-.08.28-.16h0Z"/>
      <path class="cls-1" d="M60.38,22.64l.33-.22c.07-.04.13-.09.18-.16.06-.06.09-.13.11-.21.03-.08.03-.17.01-.25,0-.08-.03-.16-.07-.23l-.1-.13c-.08-.08-.17-.13-.28-.16l-.17-.02c-.11,0-.22.03-.32.09l-.33.22c-.07.04-.13.09-.18.16-.06.06-.09.13-.11.21-.03.08-.03.17-.01.25,0,.08.03.16.07.23l.1.13c.08.08.17.13.28.16l.17.02c.11,0,.22-.03.32-.09h0Z"/>
    </g>
  </g>
  <g>
    <path class="cls-1" d="M2.54,32.56c-1.02,1.16-1.64,2.58-1.81,4.11-.16,1.38.04,3.14,1.06,4.18,1.22,1.24,2.92.37,3.89-.72s1.52-2.63,1.31-4.13c-.23-1.65-1.29-3.14-2.78-3.88-.72-.36-1.35.72-.63,1.08,2.06,1.03,2.83,3.58,1.6,5.55-.4.63-1.61,1.98-2.42,1.29s-.86-2.1-.8-3.06c.09-1.3.61-2.57,1.47-3.54.53-.6-.35-1.49-.88-.88h0Z"/>
    <path class="cls-1" d="M3.5,33.56c.8,0,.81-1.25,0-1.25s-.81,1.25,0,1.25h0Z"/>
    <path class="cls-1" d="M3.5,33.34c.8,0,.81-1.25,0-1.25s-.81,1.25,0,1.25h0Z"/>
    <path class="cls-1" d="M3.43,33.34c.8,0,.81-1.25,0-1.25s-.81,1.25,0,1.25h0Z"/>
  </g>
  <g>
    <path class="cls-1" d="M10.81,34.86c.76-.51,1.4-1.18,1.86-1.98.16-.28.08-.7-.22-.86s-.68-.08-.86.22c-.12.21-.26.41-.4.61l.1-.13c-.28.35-.59.67-.95.95l.13-.1c-.09.07-.19.14-.28.2-.14.09-.24.21-.29.37-.04.15-.02.35.06.48.17.27.57.42.86.22h0Z"/>
    <path class="cls-1" d="M13.37,39.94c.06-2.65.04-5.31-.06-7.96-.03-.8-1.28-.81-1.25,0,.1,2.65.12,5.31.06,7.96-.02.8,1.23.8,1.25,0h0Z"/>
    <path class="cls-1" d="M10.97,41.29c1.49-.25,2.98-.45,4.48-.59.34-.03.62-.26.62-.62,0-.31-.29-.66-.62-.62-1.61.15-3.21.36-4.81.63-.33.06-.52.47-.44.77.1.35.43.49.77.44h0Z"/>
    <path class="cls-1" d="M10.74,34.89c1.2-.4,1.81-1.52,2.28-2.61.07-.16.11-.31.06-.48-.04-.14-.15-.3-.29-.37-.15-.08-.32-.12-.48-.06-.14.05-.31.14-.37.29-.2.47-.42.94-.71,1.36-.03.04-.16.21-.03.05-.04.05-.08.09-.12.14-.08.09-.17.18-.26.26-.02.02-.05.04-.07.06.03-.02.12-.09.04-.03-.05.03-.1.07-.15.1-.06.03-.11.06-.17.09-.1.05.14-.05.03-.01-.03.01-.06.02-.09.03-.31.1-.54.44-.44.77.1.31.44.55.77.44h0Z"/>
  </g>
  <path class="cls-1" d="M18.37,33.47c.16-.74.85-1.26,1.61-1,.86.3.96,1.27.86,2.05-.25,1.95-1.35,3.78-2.46,5.36-.28.41.1.93.54.94,1.25.04,2.5.05,3.75.03.8-.01.81-1.26,0-1.25-1.25.02-2.5.01-3.75-.03l.54.94c.77-1.1,1.45-2.25,1.96-3.49.47-1.15.87-2.46.64-3.71s-1.21-2.14-2.46-2.16c-1.17-.02-2.2.86-2.44,1.99-.16.78,1.04,1.12,1.21.33h0Z"/>
  <path class="cls-1" d="M25.6,32.74c.77-.94,2.02.43,1.92,1.32-.14,1.23-1.44,1.53-2.47,1.45l.17,1.23c1.03-.41,2.66.33,2.6,1.57-.03.55-.43.93-.9,1.16-.39.2-1.02.4-1.41.09-.26-.21-.62-.25-.88,0-.22.22-.26.67,0,.88,1.52,1.22,4.18.03,4.41-1.88.26-2.11-2.24-3.8-4.16-3.04-.65.26-.56,1.17.17,1.23.96.08,1.95-.09,2.7-.72.67-.56,1.1-1.46,1.01-2.33-.18-1.77-2.63-3.58-4.04-1.84-.22.26-.25.63,0,.88.22.22.67.26.88,0h0Z"/>
  <g>
    <path class="cls-1" d="M34.38,39.77l-.16-8.04c-.02-.8-1.27-.81-1.25,0l.16,8.04c.02.8,1.27.81,1.25,0h0Z"/>
    <path class="cls-1" d="M31.67,35.84l2.29-3.56c.18-.28.07-.7-.22-.86-.31-.16-.67-.07-.86.22l-2.29,3.56c-.18.28-.07.7.22.86.31.16.67.07.86-.22h0Z"/>
    <path class="cls-1" d="M31.25,36.59l.82-1.23c.09-.13.1-.33.06-.48s-.15-.3-.29-.37c-.15-.08-.32-.12-.48-.06s-.28.15-.37.29l-.82,1.23c-.09.13-.1.33-.06.48s.15.3.29.37c.15.08.32.12.48.06s.28-.15.37-.29h0Z"/>
    <path class="cls-1" d="M31.09,37.18c1.52.12,3.06.09,4.57-.1.33-.04.62-.26.62-.62,0-.31-.29-.67-.62-.62-1.52.19-3.05.23-4.57.1-.34-.03-.62.31-.62.62,0,.36.29.6.62.62h0Z"/>
    <path class="cls-1" d="M31.3,36.77c.54-.97,1.14-1.91,1.8-2.8.2-.26.05-.71-.22-.86-.33-.17-.65-.06-.86.22-.66.89-1.26,1.83-1.8,2.8-.16.29-.08.7.22.86s.69.08.86-.22h0Z"/>
    <path class="cls-1" d="M33.75,38.29c.8,0,.81-1.25,0-1.25s-.81,1.25,0,1.25h0Z"/>
    <path class="cls-1" d="M33.11,38.87c0,.05.02.11.02.16l-.02-.17c.08.63.13,1.26.13,1.9,0,.33.29.64.62.62s.63-.27.62-.62c0-.75-.07-1.49-.17-2.23-.02-.14-.17-.3-.29-.37-.13-.08-.33-.11-.48-.06s-.3.14-.37.29c-.08.16-.09.31-.06.48h0Z"/>
    <path class="cls-1" d="M33.72,41.32c.8,0,.81-1.25,0-1.25s-.81,1.25,0,1.25h0Z"/>
    <path class="cls-1" d="M33.85,40.8c.8,0,.81-1.25,0-1.25s-.81,1.25,0,1.25h0Z"/>
    <path class="cls-1" d="M33.78,40.95c.8,0,.81-1.25,0-1.25s-.81,1.25,0,1.25h0Z"/>
    <path class="cls-1" d="M33.78,40.95c.8,0,.81-1.25,0-1.25s-.81,1.25,0,1.25h0Z"/>
    <path class="cls-1" d="M33.77,40.88c.8,0,.81-1.25,0-1.25s-.81,1.25,0,1.25h0Z"/>
    <path class="cls-1" d="M33.77,40.88c.8,0,.81-1.25,0-1.25s-.81,1.25,0,1.25h0Z"/>
    <path class="cls-1" d="M33.77,40.73c.8,0,.81-1.25,0-1.25s-.81,1.25,0,1.25h0Z"/>
  </g>
  <g>
    <path class="cls-1" d="M39.83,31.43c.1-.04-.03-.03.03-.02.08.01-.07,0-.08,0-.08,0-.17,0-.25,0-.23,0-.46.03-.67.14-.56.3-.53.95-.56,1.5-.05,1.06-.1,2.12-.14,3.18-.02.34.3.62.62.62.35,0,.61-.29.62-.62.04-.95.09-1.9.13-2.84.01-.23.02-.45.03-.68,0-.05,0-.11,0-.16,0-.02,0-.03,0-.04.02-.08,0-.05-.06.09l-.05.04s-.09.04-.01.01c-.05.02-.09,0-.01,0,.04,0,.07,0,.11,0,.08,0,.15,0,.23,0,.25,0,.46-.05.69-.15.31-.13.38-.59.22-.86-.19-.32-.54-.36-.86-.22h0Z"/>
    <path class="cls-1" d="M40.22,32.69l1.86-.07c.33-.01.64-.28.62-.62-.01-.33-.28-.64-.62-.62l-1.86.07c-.33.01-.64.28-.62.62.01.33.28.64.62.62h0Z"/>
    <path class="cls-1" d="M39.71,36.39c.18-.05.36-.09.55-.12-.05,0-.04,0,.04,0,.05,0,.09,0,.14,0,.03,0,.26.01.17,0,.04,0,.09.02.13.03.07.03.09.03.04,0,.03.01.21.13.11.06.06.05.11.1.16.16-.08-.09.05.08.06.11.01.02.1.23.06.11.03.07.05.15.07.22.02.06.03.11.04.17,0,.04.01.08.02.12,0-.07,0-.07,0,0,0,.17.02.33,0,.5,0,.02-.02.26,0,.15-.01.08-.03.17-.05.25s-.04.16-.07.24c0,.02-.09.24-.05.14-.06.15-.15.3-.24.44-.04.06-.05.07-.01.02-.03.03-.05.06-.08.09-.04.05-.09.09-.13.13-.03.03-.06.05-.09.08.05-.04.05-.03-.01,0-.07.04-.13.09-.2.12-.19.1-.47.17-.7.16-.03,0-.26-.03-.12,0-.08-.01-.15-.03-.22-.06-.04-.01-.07-.02-.11-.04.06.02.06.02,0,0-.02-.01-.21-.14-.12-.06-.27-.21-.62-.26-.88,0-.22.22-.27.68,0,.88.61.48,1.33.63,2.09.47.71-.15,1.3-.61,1.7-1.2.74-1.11.85-2.96-.1-3.99-.67-.72-1.66-.62-2.52-.4-.33.08-.52.45-.44.77s.44.52.77.44h0Z"/>
    <path class="cls-1" d="M39.22,36.84c.05-.1.11-.19.17-.28l-.1.13c.09-.11.19-.21.3-.3l-.13.1c.11-.09.23-.16.36-.21l-.15.06c.12-.05.25-.09.39-.11l-.17.02h.02c.09,0,.17-.02.24-.06.08-.03.14-.07.2-.13.11-.11.19-.29.18-.44s-.06-.33-.18-.44c-.11-.1-.28-.2-.44-.18-.19.03-.37.05-.55.13s-.34.14-.49.25c-.3.22-.57.49-.73.83-.07.15-.11.31-.06.48.04.14.15.3.29.37.15.08.32.12.48.06.15-.05.3-.14.37-.29h0Z"/>
  </g>
  <path class="cls-1" d="M48.13,30.98c-1.27.26-1.96,1.5-2.45,2.58-.59,1.31-.99,2.72-.98,4.17,0,.69.15,1.4.6,1.93s1.08.77,1.74.64c1.27-.24,2.2-1.61,2.11-2.87-.09-1.33-1.4-3.08-2.88-2.27-.71.39-.08,1.47.63,1.08.35-.19.77.45.88.7.19.44.17.93-.05,1.35-.19.36-.66.88-1.12.79s-.62-.7-.65-1.08c-.1-1.18.22-2.4.66-3.49.34-.85.83-2.12,1.84-2.33.79-.16.45-1.37-.33-1.21h0Z"/>
  <g>
    <path class="cls-1" d="M52.72,32.27h4.42c.34,0,.62-.29.62-.62s-.29-.62-.62-.62h-4.42c-.34,0-.62.29-.62.62s.29.62.62.62h0Z"/>
    <path class="cls-1" d="M57.22,33c.8,0,.81-1.25,0-1.25s-.81,1.25,0,1.25h0Z"/>
    <path class="cls-1" d="M57.44,32.86c.8,0,.81-1.25,0-1.25s-.81,1.25,0,1.25h0Z"/>
    <path class="cls-1" d="M58.06,32.47l.29-.44c.05-.07.07-.15.07-.23.02-.08.01-.17-.01-.25-.02-.08-.06-.15-.11-.21-.04-.07-.1-.12-.18-.16l-.15-.06c-.11-.03-.22-.03-.33,0l-.15.06c-.09.06-.17.13-.22.22l-.29.44c-.05.07-.07.15-.07.23-.02.08-.01.17.01.25.02.08.06.15.11.21.04.07.1.12.18.16l.15.06c.11.03.22.03.33,0l.15-.06c.09-.06.17-.13.22-.22h0Z"/>
    <path class="cls-1" d="M57.66,32.49c.8,0,.81-1.25,0-1.25s-.81,1.25,0,1.25h0Z"/>
    <path class="cls-1" d="M57.44,32.34c.8,0,.81-1.25,0-1.25s-.81,1.25,0,1.25h0Z"/>
    <path class="cls-1" d="M57.74,32.34c.8,0,.81-1.25,0-1.25s-.81,1.25,0,1.25h0Z"/>
    <path class="cls-1" d="M57.74,32.34c.8,0,.81-1.25,0-1.25s-.81,1.25,0,1.25h0Z"/>
    <path class="cls-1" d="M57.74,32.27c.8,0,.81-1.25,0-1.25s-.81,1.25,0,1.25h0Z"/>
    <path class="cls-1" d="M54.33,39.42c1.07-2.35,2.25-4.65,3.53-6.89.4-.7-.68-1.33-1.08-.63-1.29,2.24-2.47,4.54-3.53,6.89-.14.31-.09.67.22.86.27.16.71.08.86-.22h0Z"/>
    <path class="cls-1" d="M54.54,35.99l2.19-.08c.33-.01.64-.28.62-.62s-.28-.64-.62-.62l-2.19.08c-.33.01-.64.28-.62.62s.28.64.62.62h0Z"/>
  </g>
  <g>
    <path class="cls-1" d="M62.84,38.66c-.68.15-1.39-.58-1.75-1.06-.44-.58-.4-1.19.23-1.6.67-.44,1.52-.51,2.19-.97.64-.43,1.11-1.09,1.11-1.88,0-.74-.4-1.48-1.02-1.89-.66-.43-1.52-.41-2.22-.09s-1.29,1.01-1.26,1.82c.04.87.65,1.48,1.32,1.96.41.29.83.58,1.25.86.37.26.83.49,1.14.82.35.36.21,1.85-.45,1.82-.8-.04-.8,1.21,0,1.25.91.05,1.57-.73,1.75-1.56.18-.78.21-1.69-.35-2.32-.24-.27-.57-.47-.86-.67-.41-.28-.81-.56-1.22-.84s-1.63-.91-1.29-1.59c.26-.51,1.09-.72,1.55-.38.5.36.5,1.06.08,1.46-.56.54-1.43.63-2.11.96s-1.25.94-1.39,1.69c-.18.98.41,1.86,1.1,2.5s1.55,1.11,2.52.9c.79-.17.45-1.37-.33-1.21h0Z"/>
    <path class="cls-1" d="M63.3,39.78c.8,0,.81-1.25,0-1.25s-.81,1.25,0,1.25h0Z"/>
    <path class="cls-1" d="M63.24,39.8c.8,0,.81-1.25,0-1.25s-.81,1.25,0,1.25h0Z"/>
    <path class="cls-1" d="M63.13,39.86c.8,0,.81-1.25,0-1.25s-.81,1.25,0,1.25h0Z"/>
    <path class="cls-1" d="M63.24,39.9c.8,0,.81-1.25,0-1.25s-.81,1.25,0,1.25h0Z"/>
    <path class="cls-1" d="M63.41,39.84c.8,0,.81-1.25,0-1.25s-.81,1.25,0,1.25h0Z"/>
  </g>
  <g>
    <path class="cls-1" d="M69.76,30.95c-1.06.08-1.74.87-2.15,1.79s-.64,1.97-.1,2.88,1.67,1.14,2.61.7c.84-.4,1.43-1.36,1.63-2.25.26-1.15-.18-2.36-1.32-2.8-.31-.12-.69.13-.77.44-.1.35.12.65.44.77-.1-.04.07.04.1.06.06.04,0,0,0,0,.03.02.06.05.09.08s.06.06.08.09c0,0-.05-.06,0,0,.05.07.09.14.13.21.03.06,0,0,0,0,.02.04.03.08.04.12.02.07.04.14.05.21,0,.06,0,.32,0,.37-.05.33-.16.61-.32.89-.04.08-.09.15-.14.23-.01.02-.11.14-.06.08-.05.06-.1.12-.16.17-.03.03-.06.06-.1.09-.08.07.06-.04-.03.02-.06.05-.13.08-.2.12,0,0-.11.05-.03.02-.03.01-.06.02-.09.03-.07.02-.15.04-.23.06.04,0,.08,0-.03,0-.04,0-.09,0-.13,0-.02,0-.12-.02-.03,0-.03,0-.06-.01-.09-.02s-.06-.02-.09-.03c.08.03-.02-.01-.02-.02-.02-.02-.05-.03-.08-.05-.08-.06.06.06-.01-.01-.02-.02-.04-.04-.06-.06-.12-.12.02.04-.03-.04-.04-.06-.07-.12-.11-.18,0,0-.04-.09-.02-.04.03.06-.02-.05-.02-.07-.02-.07-.04-.14-.05-.21,0,0-.01-.1,0-.04,0,.07,0-.13,0-.11,0-.32.08-.59.2-.92.1-.25.32-.69.47-.87.06-.07.12-.14.19-.2.08-.08.04-.04.14-.1.03-.02.06-.03.09-.05.16-.09-.04,0,.06-.03.03-.01.06-.02.09-.03.15-.05-.07,0,.09-.02.34-.02.62-.27.62-.62,0-.32-.29-.65-.62-.62h0Z"/>
    <path class="cls-1" d="M70.65,33.89c-.17,2-1.05,3.9-2.39,5.38-.54.6.34,1.48.88.88,1.57-1.74,2.56-3.92,2.76-6.27.03-.34-.31-.62-.62-.62-.36,0-.6.29-.62.62h0Z"/>
  </g>
  <path class="cls-1" d="M2.41,50.92c.05-.12.1-.24.17-.36.03-.06.06-.11.1-.17-.05.07.05-.06.06-.06l.04-.04s-.04.04.02,0c-.11.02.06-.02-.02,0-.05,0-.04,0,.03,0-.06-.01-.06,0-.02,0,.04.01.04.01-.01,0l.05.03c.11.07-.01-.03.07.05.04.05.09.09.13.14.08.09.16.19.24.29.19.21.41.38.67.49.55.23,1.18.11,1.65-.25s.71-.94.74-1.53c.02-.33-.3-.64-.62-.62-.36.02-.6.27-.62.62-.01.18.03-.11,0,.07-.01.06-.03.12-.05.17-.03.1.01-.01-.02.04-.02.04-.05.09-.07.13-.08.14.06-.05-.04.06,0,0-.14.13-.05.06-.04.03-.08.05-.12.08-.06.03.07-.01-.04.01-.02,0-.19.03-.06.02-.06,0-.11,0-.17,0,.09,0,.02,0-.03-.01-.06-.01.06.05-.04-.01-.02-.01-.14-.11-.07-.04-.05-.04-.09-.09-.13-.13-.08-.08-.15-.17-.22-.26-.37-.44-.94-.79-1.53-.6s-.89.67-1.12,1.2c-.13.3-.1.68.22.86.27.14.72.1.86-.22h0Z"/>
  <path class="cls-1" d="M8.5,48.14s.02.02.03.03l-.1-.13c.27.35.51.72.72,1.11.07.14.23.25.37.29s.35.02.48-.06.25-.21.29-.37.02-.33-.06-.48c-.24-.45-.53-.86-.84-1.27-.09-.12-.3-.18-.44-.18-.15,0-.34.07-.44.18s-.19.28-.18.44l.02.17c.03.11.08.2.16.28h0Z"/>
  <g>
    <path class="cls-1" d="M11.95,48.18l-.07,6.48c0,.8,1.24.81,1.25,0l.07-6.48c0-.8-1.24-.81-1.25,0h0Z"/>
    <path class="cls-1" d="M11.94,56.9v.06c0,.09.01.17.05.24.03.08.07.14.13.2.06.06.12.1.2.13.07.04.15.06.24.05l.17-.02c.11-.03.2-.08.28-.16l.1-.13c.06-.1.08-.2.09-.32v-.06c0-.09-.01-.17-.05-.24-.03-.08-.07-.14-.13-.2-.06-.06-.12-.1-.2-.13-.07-.04-.15-.06-.24-.05l-.17.02c-.11.03-.2.08-.28.16l-.1.13c-.06.1-.08.2-.09.32h0Z"/>
    <path class="cls-1" d="M12.57,57.41c.8,0,.81-1.25,0-1.25s-.81,1.25,0,1.25h0Z"/>
    <path class="cls-1" d="M12.07,56.4l-.05.06c-.06.06-.1.12-.13.2-.04.07-.06.15-.05.24,0,.09.01.17.05.24.03.08.07.14.13.2l.13.1c.1.06.2.08.32.09l.17-.02c.11-.03.2-.08.28-.16l.05-.06c.06-.06.1-.12.13-.2.04-.07.06-.15.05-.24,0-.09-.01-.17-.05-.24-.03-.08-.07-.14-.13-.2l-.13-.1c-.1-.06-.2-.08-.32-.09l-.17.02c-.11.03-.2.08-.28.16h0Z"/>
    <path class="cls-1" d="M12.46,57.58c.8,0,.81-1.25,0-1.25s-.81,1.25,0,1.25h0Z"/>
    <path class="cls-1" d="M12.46,57.58c.8,0,.81-1.25,0-1.25s-.81,1.25,0,1.25h0Z"/>
    <path class="cls-1" d="M12.51,57.35c.8,0,.81-1.25,0-1.25s-.81,1.25,0,1.25h0Z"/>
    <path class="cls-1" d="M12.57,57.35c.8,0,.81-1.25,0-1.25s-.81,1.25,0,1.25h0Z"/>
  </g>
  <g>
    <path class="cls-1" d="M19.07,51.24c-.6-.03-1.08.36-1.42.82s-.56.99-.45,1.56c.12.61.7,1.02,1.3,1.01s1.09-.36,1.41-.85c.34-.53.48-1.22.46-1.85l-1.23.17c.23.97.87,1.79,1.71,2.32.28.18.7.07.86-.22.16-.31.07-.67-.22-.86-.04-.03-.09-.06-.13-.09-.01,0-.15-.11-.04-.03-.07-.05-.14-.11-.2-.17-.08-.07-.15-.15-.22-.22-.03-.03-.05-.07-.08-.1-.03-.03-.02-.03.02.03-.02-.02-.03-.04-.05-.06-.11-.15-.2-.31-.28-.48-.03-.06-.04-.09,0-.01-.02-.05-.04-.09-.05-.14-.03-.1-.06-.19-.08-.29-.16-.68-1.26-.54-1.23.17,0,.12,0,.25,0,.37-.01.19.03-.11,0,.08-.01.06-.02.12-.04.18-.03.12-.07.24-.11.36.03-.08,0-.02-.01.03-.02.05-.05.09-.07.14s-.06.09-.08.13c-.03.04-.02.03.02-.02-.02.02-.03.04-.05.06-.03.03-.06.06-.1.09.1-.08-.02,0-.04.02-.11.07.09-.01-.03.01-.02,0-.05.01-.07.02-.05,0-.03,0,.04,0,0,0-.15,0-.15,0,.08.01.09.01.05,0-.02,0-.05-.01-.07-.02l.06.02c-.06-.04-.06-.03,0,.02l-.03-.03c.05.07.05.07.01.01-.05-.11,0,.08,0,0,0-.02-.01-.04-.02-.07,0,.08.01.1,0,.05,0-.02,0-.17,0-.08-.01.09.02-.06.02-.08.03-.13-.03.05.02-.06.03-.05.05-.1.08-.15.05-.09.11-.18.18-.27-.09.12.02-.01.03-.03.03-.04.07-.07.11-.11.09-.09-.09.04.03-.02.04-.02.08-.05.13-.07-.07.03-.06.03,0,0,.05-.01.03,0-.05,0,.03,0,.07,0,.1,0,.33.02.64-.3.62-.62-.02-.35-.27-.61-.62-.62h0Z"/>
    <path class="cls-1" d="M21.8,54.36c1.58-.62,1.73-2.48,1.02-3.83-.75-1.42-2.38-2.36-3.99-2.29-.84.04-1.67.31-2.32.85s-1.02,1.36-1.14,2.19c-.24,1.65.1,3.47,1.21,4.75,1.18,1.37,3.37,1.89,4.95.94.69-.41.06-1.49-.63-1.08-.93.56-2.19.33-3.02-.33-.94-.76-1.31-2.02-1.33-3.18s.32-2.4,1.6-2.78c1.11-.33,2.31.04,3.1.87.37.39.68.91.74,1.46.05.43-.07,1.04-.52,1.22-.31.12-.53.42-.44.77.08.3.45.56.77.44h0Z"/>
  </g>
  <g>
    <path class="cls-1" d="M27.05,56.76c.36-2.61.79-5.21,1.29-7.8.15-.79-1.05-1.12-1.21-.33-.5,2.59-.93,5.19-1.29,7.8-.05.33.08.67.44.77.29.08.72-.1.77-.44h0Z"/>
    <path class="cls-1" d="M29.62,56.69c.38-2.58.91-5.14,1.58-7.66.21-.78-1-1.11-1.21-.33-.68,2.52-1.2,5.07-1.58,7.66-.05.33.08.67.44.77.29.08.72-.1.77-.44h0Z"/>
    <path class="cls-1" d="M25.57,51.71c2.04.19,4.09.25,6.13.16.8-.03.81-1.28,0-1.25-2.05.09-4.09.03-6.13-.16-.34-.03-.62.31-.62.62,0,.36.29.59.62.62h0Z"/>
    <path class="cls-1" d="M25.3,55.1c1.98.22,3.98.31,5.97.27.8-.02.81-1.27,0-1.25-2,.04-3.99-.05-5.97-.27-.34-.04-.62.31-.62.62,0,.37.29.59.62.62h0Z"/>
  </g>
  <g>
    <path class="cls-1" d="M39.09,48.45c-1.69-2.28-5.57,1.04-3.7,3.08.41.45.97.66,1.53.85.41.14,1,.3,1.18.75s-.12,1.01-.4,1.33c-.37.41-.87.49-1.37.29-.31-.12-.69.14-.77.44-.1.36.12.64.44.77,1.13.45,2.34-.09,2.95-1.09.65-1.06.59-2.36-.45-3.12-.44-.32-.96-.46-1.46-.64-.36-.13-.94-.39-.9-.86.03-.43.51-.87.84-1.1.27-.18.8-.39,1.05-.05.2.27.54.41.86.22.27-.16.43-.58.22-.86h0Z"/>
    <path class="cls-1" d="M35.33,55.39l.27.29c.06.06.12.1.2.13.07.04.15.06.24.05.09,0,.17-.01.24-.05.08-.03.14-.07.2-.13l.1-.13c.06-.1.08-.2.09-.32l-.02-.17c-.03-.11-.08-.2-.16-.28l-.27-.29c-.06-.06-.12-.1-.2-.13-.07-.04-.15-.06-.24-.05-.09,0-.17.01-.24.05-.08.03-.14.07-.2.13l-.1.13c-.06.1-.08.2-.09.32l.02.17c.03.11.08.2.16.28h0Z"/>
    <path class="cls-1" d="M37.71,56.98c.2-3.39-.17-6.8.15-10.19.08-.8-1.18-.8-1.25,0-.32,3.39.05,6.79-.15,10.19-.05.8,1.2.8,1.25,0h0Z"/>
    <path class="cls-1" d="M35.93,55.86c.8,0,.81-1.25,0-1.25s-.81,1.25,0,1.25h0Z"/>
    <path class="cls-1" d="M35.93,55.86c.8,0,.81-1.25,0-1.25s-.81,1.25,0,1.25h0Z"/>
    <path class="cls-1" d="M36.32,54.74c-.12-.11-.23-.22-.32-.35l.1.13c-.11-.14-.2-.29-.28-.45-.04-.07-.09-.13-.16-.18-.06-.06-.13-.09-.21-.11-.08-.03-.17-.03-.25-.01-.08,0-.16.03-.23.07-.13.09-.25.21-.29.37l-.02.17c0,.11.03.22.09.32.08.15.16.3.27.44.13.18.27.34.43.49.12.11.27.18.44.18.09,0,.17-.01.24-.05.08-.03.14-.07.2-.13.11-.12.19-.28.18-.44s-.06-.33-.18-.44h0Z"/>
    <path class="cls-1" d="M38.45,49.27c.8,0,.81-1.25,0-1.25s-.81,1.25,0,1.25h0Z"/>
    <path class="cls-1" d="M38.39,49.49l.27.29c.06.06.12.1.2.13.07.04.15.06.24.05.09,0,.17-.01.24-.05.08-.03.14-.07.2-.13l.1-.13c.06-.1.08-.2.09-.32l-.02-.17c-.03-.11-.08-.2-.16-.28l-.27-.29c-.06-.06-.12-.1-.2-.13-.07-.04-.15-.06-.24-.05-.09,0-.17.01-.24.05-.08.03-.14.07-.2.13l-.1.13c-.06.1-.08.2-.09.32l.02.17c.03.11.08.2.16.28h0Z"/>
  </g>
  <g>
    <path class="cls-1" d="M41.96,48.09c-.4.41-.81.9-.91,1.49-.11.65.07,1.33.65,1.7s1.33.22,1.83-.2c.46-.38.67-.98.73-1.56.07-.65-.15-1.34-.72-1.7-.28-.18-.7-.07-.86.22-.16.31-.07.67.22.86.02,0,.03.03.05.03-.13-.07-.09-.08-.06-.04.01.01.03.03.04.04.04.04.02.07-.04-.06.02.04.05.07.06.1,0,.01.01.03.02.04.04.06-.05-.15-.02-.05.01.04.03.08.04.12,0,.02.01.11.02.13,0,0-.01-.17-.01-.07,0,.02,0,.04,0,.07,0,.04,0,.09,0,.13s0,.09,0,.13c0,.1.01-.07,0-.07,0,.02,0,.05-.01.07-.02.09-.04.19-.07.28,0,.02-.02.05-.02.07-.03.1.02-.04.02-.05-.02.04-.04.09-.06.13s-.05.08-.07.12c-.01.02-.03.04-.04.06.02-.04.09-.11.02-.03-.03.03-.06.06-.09.09-.01.01-.04.03-.05.05.05-.08.1-.07.04-.04-.04.02-.08.05-.11.07-.06.03-.04-.02.06-.02-.03,0-.05.02-.08.03-.04.01-.08.02-.11.02.18-.05.07,0,0-.01,0,0-.06,0-.06,0,0,0,.17.04.07,0-.03,0-.18-.06-.08-.02s-.02-.01-.04-.03c-.09-.05.06.04.05.04,0,0-.04-.04-.05-.04-.01-.01-.03-.04-.04-.05.09.07.07.1.04.05-.01-.03-.09-.17-.04-.07s0-.04-.01-.06c0-.02,0-.03-.01-.05-.02-.1.01.07,0,.07,0,0,0-.12,0-.13,0-.02,0-.05,0-.07,0-.03.01-.13,0-.02-.01.11,0,.03,0,0s.01-.05.02-.08c.01-.05.03-.1.05-.15.03-.08-.06.11-.02.04.02-.03.03-.06.04-.09.03-.05.06-.1.09-.15.02-.03.1-.11.1-.14,0,.01-.1.12-.02.03.02-.02.04-.05.06-.07.08-.09.17-.18.25-.27.23-.23.25-.65,0-.88s-.64-.25-.88,0h0Z"/>
    <path class="cls-1" d="M42.79,48.75c.8,0,.81-1.25,0-1.25s-.81,1.25,0,1.25h0Z"/>
    <path class="cls-1" d="M43.22,55.5l4.28-6.53c.44-.67-.64-1.3-1.08-.63l-4.28,6.53c-.44.67.64,1.3,1.08.63h0Z"/>
    <path class="cls-1" d="M46.58,52.23c-.52.39-1.05.85-1.17,1.53-.07.38-.04.76.16,1.1.14.24.37.46.62.58.55.26,1.19.25,1.7-.11s.84-.9.95-1.49c.09-.43.08-.88-.14-1.27s-.6-.62-1.04-.66c-.33-.03-.64.31-.62.62.02.36.28.59.62.62-.18-.02-.11-.02-.07,0,.07.02,0,.02-.06-.03.01.01.04.02.06.03.05.03.04.06-.05-.04.02.03.06.06.08.08.05.06-.07-.11-.04-.04,0,.02.03.07.04.07-.01,0-.05-.15-.02-.05,0,.03.02.05.02.08,0,.02,0,.06.02.08,0,0,0-.13-.01-.06,0,.06,0,.11,0,.17,0,.02,0,.04,0,.06.01-.09.02-.11,0-.06,0,.02,0,.04-.01.06-.02.09-.04.19-.08.28,0,.02-.02.04-.02.07-.02.06.03-.07.03-.07-.03.05-.05.11-.08.16-.04.07-.09.14-.13.21.09-.15.02-.03-.01,0-.04.04-.07.07-.11.11-.11.1.11-.07,0,0-.03.02-.07.04-.1.06-.02,0-.05.02-.06.03.09-.07.11-.04.05-.02-.04.01-.09.02-.13.04-.07.02.15,0,.08,0-.01,0-.03,0-.05,0-.04,0-.08,0-.12,0-.05,0-.09-.03.08.01-.02,0-.04,0-.06-.01-.04,0-.08-.02-.12-.03-.1-.02.07.03.06.03-.01,0-.04-.02-.05-.03-.04-.02-.07-.04-.1-.06-.05-.03-.03-.06.05.04-.01-.01-.03-.03-.04-.04-.01-.01-.02-.02-.03-.03-.08-.07.01.04.03.05-.03-.02-.05-.08-.06-.1-.03-.05,0-.07.02.07,0-.02-.01-.04-.02-.06s-.01-.04-.01-.06c0-.03-.04-.1,0-.01.03.08,0,.03,0-.01,0-.01.01-.09,0-.1,0,0-.03.16,0,.05,0-.03.01-.06.02-.1,0-.03.02-.05.02-.08,0-.01,0-.02.01-.04.02-.04,0-.02-.02.06,0,0,.06-.12.07-.14.01-.02.03-.04.04-.07.07-.12-.09.1,0,0,.08-.09.15-.17.24-.24.05-.04.09-.08.14-.12,0,0,.06-.05.06-.05l-.06.05s.04-.03.06-.05c.14-.1.24-.2.29-.37.04-.15.02-.35-.06-.48-.17-.26-.58-.43-.86-.22h0Z"/>
    <path class="cls-1" d="M47.44,53.11c.8,0,.81-1.25,0-1.25s-.81,1.25,0,1.25h0Z"/>
  </g>
  <path class="cls-1" d="M51.44,49.77c.18-.4.39-.79.62-1.16.11-.19.24-.37.36-.55.05-.07.11-.19.18-.24-.11.09-.02.04,0,0-.18.15-.35.17-.5.08.02,0,.04.02.06.03.04.02.07.05.11.07.04.03.02.02-.04-.03.02.02.04.04.06.06.03.03.06.06.09.09.01.02.03.03.04.05.03.04.02.02-.03-.04.06.03.12.19.15.24.05.08.09.17.13.26.07.15-.05-.12.01.03.02.05.04.09.05.14.04.11.08.21.13.32.1.23.19.46.33.67.17.28.57.41.86.22s.41-.56.22-.86c-.07-.11-.13-.22-.18-.34,0-.02-.08-.19-.05-.1s-.04-.09-.04-.11c-.1-.26-.2-.52-.32-.76-.23-.45-.63-.96-1.14-1.1-.22-.06-.45-.04-.65.08-.16.1-.25.23-.36.37-.15.2-.3.41-.43.62-.27.43-.52.87-.72,1.33-.13.3-.1.69.22.86.27.14.71.09.86-.22h0Z"/>
  <g>
    <path class="cls-1" d="M60.7,55.12c-1.22-1.75-2.35-3.57-3.38-5.44-.39-.7-1.47-.07-1.08.63,1.03,1.87,2.16,3.68,3.38,5.44.19.28.55.4.86.22.27-.16.42-.58.22-.86h0Z"/>
    <path class="cls-1" d="M57.04,49.08c-.16-.39-.13-1,.33-1.17.36-.13.53.22.55.53.04.54-.34.92-.67,1.3-.41.48-.76,1-1.02,1.58s-.46,1.18-.56,1.81-.19,1.32.02,1.9c.45,1.22,1.98,1.23,2.97.73,1.34-.69,1.94-2.19,2.28-3.57.19-.78-1.01-1.11-1.21-.33-.28,1.12-.75,2.59-2.01,2.94-.21.06-.45.09-.65,0-.25-.11-.25-.31-.26-.56,0-.64.12-1.27.33-1.87s.51-1.15.9-1.63.86-.94,1.03-1.57c.3-1.08-.22-2.44-1.47-2.52-.64-.04-1.28.33-1.61.87-.42.68-.34,1.49-.04,2.2.13.31.59.38.86.22.32-.18.35-.55.22-.86h0Z"/>
    <path class="cls-1" d="M56.57,50.3c.8,0,.81-1.25,0-1.25s-.81,1.25,0,1.25h0Z"/>
  </g>
  <g>
    <path class="cls-1" d="M63.6,47.38v.6c0,.09.01.17.05.24.03.08.07.14.13.2.06.06.12.1.2.13.07.04.15.06.24.05l.17-.02c.11-.03.2-.08.28-.16.11-.12.18-.27.18-.44v-.6c0-.09-.01-.17-.05-.24-.03-.08-.07-.14-.13-.2-.06-.06-.12-.1-.2-.13-.07-.04-.15-.06-.24-.05l-.17.02c-.11.03-.2.08-.28.16-.11.12-.18.27-.18.44h0Z"/>
    <path class="cls-1" d="M64.23,48.74c.8,0,.81-1.25,0-1.25s-.81,1.25,0,1.25h0Z"/>
    <path class="cls-1" d="M64.29,48.83c.8,0,.81-1.25,0-1.25s-.81,1.25,0,1.25h0Z"/>
    <path class="cls-1" d="M64.64,49.03l.21-.06c.08-.02.15-.06.21-.11.07-.04.12-.1.16-.18.05-.07.07-.15.07-.23.02-.08.01-.17-.01-.25l-.06-.15c-.06-.09-.13-.17-.22-.22l-.15-.06c-.11-.03-.22-.03-.33,0l-.21.06c-.08.02-.15.06-.21.11-.07.04-.12.1-.16.18-.05.07-.07.15-.07.23-.02.08-.01.17.01.25l.06.15c.06.09.13.17.22.22l.15.06c.11.03.22.03.33,0h0Z"/>
    <path class="cls-1" d="M64.49,49.17c.4-.1.79-.25,1.15-.46.14-.08.25-.22.29-.37s.02-.35-.06-.48-.21-.25-.37-.29-.33-.02-.48.06c-.13.08-.27.14-.41.2l.15-.06c-.19.08-.39.14-.59.19-.15.04-.3.16-.37.29s-.11.33-.06.48.14.3.29.37.31.1.48.06h0Z"/>
    <path class="cls-1" d="M64.15,47.92s-.06-.02-.08-.03l.15.06c-.17-.07-.34-.17-.49-.29l.13.1s-.04-.03-.06-.05l-.76.98c.21.13.42.26.63.38.07.05.15.07.23.07.08.02.17.01.25-.01.08-.02.15-.06.21-.11.07-.04.12-.1.16-.18l.06-.15c.03-.11.03-.22,0-.33l-.06-.15c-.06-.09-.13-.17-.22-.22-.21-.13-.42-.26-.63-.38-.07-.05-.15-.07-.23-.07-.08-.02-.17-.01-.25.01l-.15.06c-.07.04-.13.09-.18.16-.04.04-.07.08-.08.14-.04.07-.06.15-.05.24l.02.17c.03.11.08.2.16.28.14.11.28.22.43.31s.32.16.48.22c.08.03.17.03.25.01.08,0,.16-.03.23-.07.07-.04.13-.09.18-.16.06-.06.09-.13.11-.21l.02-.17c0-.11-.03-.22-.09-.32l-.1-.13c-.08-.08-.17-.13-.28-.16h0Z"/>
    <path class="cls-1" d="M64.12,50.05c.12-.16.24-.32.35-.49.08-.13.16-.26.23-.4.05-.07.07-.15.07-.23.02-.08.01-.17-.01-.25-.02-.08-.06-.15-.11-.21-.04-.07-.1-.12-.18-.16-.15-.08-.32-.12-.48-.06-.15.05-.3.14-.37.29-.13.27-.29.52-.47.75l.1-.13h0c-.06.07-.1.13-.13.21-.04.07-.06.15-.05.24,0,.09.01.17.05.24.03.08.07.14.13.2.12.11.28.19.44.18l.17-.02c.11-.03.2-.08.28-.16h0Z"/>
    <path class="cls-1" d="M64,49.28l.63.77c.06.06.12.1.2.13.07.04.15.06.24.05.09,0,.17-.01.24-.05.08-.03.14-.07.2-.13.11-.12.19-.28.18-.44l-.02-.17c-.03-.11-.08-.2-.16-.28l-.63-.77c-.06-.06-.12-.1-.2-.13-.07-.04-.15-.06-.24-.05-.09,0-.17.01-.24.05-.08.03-.14.07-.2.13-.11.12-.19.28-.18.44l.02.17c.03.11.08.2.16.28h0Z"/>
  </g>
  <path class="cls-1" d="M69.26,46.56c-1.15,1.41-1.39,3.23-1.33,5,.06,1.65.33,3.5,1.62,4.67.6.53,1.49-.35.88-.88-1.05-.94-1.21-2.45-1.26-3.78s.04-2.98.97-4.11c.51-.62-.37-1.51-.88-.88h0Z"/>
  <path class="cls-1" d="M73.27,47.22c.81,1.3,1.24,2.8,1.26,4.33.02,1.38-.24,3.18-1.26,4.21-.57.57.32,1.46.88.88,1.23-1.24,1.62-3.26,1.63-4.94.01-1.8-.48-3.59-1.43-5.11-.42-.68-1.51-.05-1.08.63h0Z"/>
  <path class="cls-1" d="M78.65,52.34c.9.03,1.8-.04,2.69-.19.32-.05.53-.47.44-.77-.11-.35-.42-.49-.77-.44-.11.02-.21.03-.32.05-.02,0-.05,0-.07.01.08-.01.09-.01.04,0-.05,0-.1.01-.15.02-.21.02-.41.04-.62.06-.41.03-.83.03-1.24.02-.33-.01-.64.29-.62.62.02.35.27.61.62.62h0Z"/>
  <path class="cls-1" d="M83.97,56.73c.75.08,1.51.16,2.27.14.4-.01.81-.05,1.21-.12.31-.05.58-.13.85-.04.32.11.68-.12.77-.44.09-.34-.11-.66-.44-.77-.42-.14-.85-.08-1.28,0-.34.06-.68.1-1.03.12-.79.03-1.57-.06-2.36-.14-.34-.04-.62.31-.62.62,0,.37.29.59.62.62h0Z"/>
  <g>
    <path class="cls-1" d="M91.38,50.85l3.45.06c.33,0,.64-.29.62-.62s-.27-.62-.62-.62l-3.45-.06c-.33,0-.64.29-.62.62s.27.62.62.62h0Z"/>
    <path class="cls-1" d="M91.71,53.19l3.07-.18c.33-.02.64-.27.62-.62-.01-.32-.28-.65-.62-.62l-3.07.18c-.33.02-.64.27-.62.62.01.32.28.65.62.62h0Z"/>
  </g>
  <g>
    <path class="cls-1" d="M100.01,49.02c0,1.55.05,3.1.17,4.65.03.34.27.62.62.62.32,0,.65-.29.62-.62-.12-1.55-.17-3.1-.17-4.65,0-.8-1.25-.81-1.25,0h0Z"/>
    <path class="cls-1" d="M99.12,51.99c.97.03,1.94.02,2.9-.04.33-.02.64-.27.62-.62-.01-.32-.28-.65-.62-.62-.97.06-1.94.07-2.9.04-.33-.01-.64.3-.62.62.02.35.27.61.62.62h0Z"/>
    <path class="cls-1" d="M102.08,51.93c.8,0,.81-1.25,0-1.25s-.81,1.25,0,1.25h0Z"/>
  </g>
  <g>
    <path class="cls-1" d="M105.65,46.89c.12,3.17.24,6.35.37,9.52.03.8,1.28.81,1.25,0-.12-3.17-.24-6.35-.37-9.52-.03-.8-1.28-.81-1.25,0h0Z"/>
    <path class="cls-1" d="M106.74,47.46l1.26.16c.15.02.34-.08.44-.18.11-.11.19-.29.18-.44s-.06-.33-.18-.44l-.13-.1c-.1-.06-.2-.08-.32-.09l-1.26-.16c-.15-.02-.34.08-.44.18-.11.11-.19.29-.18.44s.06.33.18.44l.13.1c.1.06.2.08.32.09h0Z"/>
    <path class="cls-1" d="M106.8,57.11l1.15-.07c.17,0,.32-.06.44-.18.11-.11.19-.29.18-.44s-.06-.33-.18-.44-.28-.19-.44-.18l-1.15.07c-.17,0-.32.06-.44.18-.11.11-.19.29-.18.44s.06.33.18.44.28.19.44.18h0Z"/>
    <path class="cls-1" d="M108,57.04c.8,0,.81-1.25,0-1.25s-.81,1.25,0,1.25h0Z"/>
  </g>
  <g>
    <path class="cls-1" d="M113.37,46.89c.17,3.31.21,6.62.12,9.92-.02.8,1.23.8,1.25,0,.09-3.31.04-6.62-.12-9.92-.04-.8-1.29-.81-1.25,0h0Z"/>
    <path class="cls-1" d="M113.09,57.44c.12.02.24.02.37.01.17-.01.35-.04.51-.08.08-.02.15-.06.21-.11.07-.04.12-.1.16-.18.05-.07.07-.15.07-.23.02-.08.01-.17-.01-.25-.05-.15-.14-.3-.29-.37s-.31-.11-.48-.06c-.07.02-.15.03-.23.04l.17-.02c-.16.02-.33.02-.49,0-.09,0-.17.01-.24.05-.08.03-.14.07-.2.13-.06.06-.1.12-.13.2-.04.07-.06.15-.05.24,0,.16.06.33.18.44l.13.1c.1.06.2.08.32.09h0Z"/>
    <path class="cls-1" d="M112.99,47.53c.37.04.74,0,1.1-.06.08-.02.15-.06.21-.11.07-.04.12-.1.16-.18.05-.07.07-.15.07-.23.02-.08.01-.17-.01-.25-.05-.15-.14-.3-.29-.37l-.15-.06c-.11-.03-.22-.03-.33,0-.05,0-.11.02-.16.03l.17-.02c-.26.03-.52.04-.77.01-.09,0-.17.01-.24.05-.08.03-.14.07-.2.13-.11.11-.19.29-.18.44s.06.33.18.44l.13.1c.1.06.2.08.32.09h0Z"/>
  </g>
  <path class="cls-1" d="M121.37,45.4c-1.65.4-2.44,2.35-1.55,3.8.19.3.47.53.67.82s.06.33-.21.47c-.54.27-1.12.47-1.39,1.06-.13.28-.11.71.22.86.57.25,1.12.4,1.74.45l-.54-.94c-1.67,2.21-.2,5.5,2.58,5.64.8.04.8-1.21,0-1.25-1.93-.1-2.56-2.36-1.5-3.76.31-.41-.12-.91-.54-.94-.38-.03-.76-.12-1.11-.27l.22.86c.2-.44.86-.52,1.23-.78.48-.33.76-.9.62-1.49-.17-.67-.83-1.01-1.05-1.63-.26-.75.18-1.5.94-1.68s.45-1.39-.33-1.21h0Z"/>
  <path class="cls-1" d="M126.26,46.07c.81-.53.53,1.58.49,1.82-.12.73-.24,1.61.37,2.17.22.2.49.31.78.35s.66-.02.94.06c.13.04.08.04.09,0-.01.19-.37.28-.5.32-.38.12-.74.2-1.09.4-.38.22-.44.87,0,1.08.69.32.84,1.18.64,1.86-.27.93-1.12,1.6-1.86,2.17-.63.48,0,1.57.63,1.08,1.07-.82,2.24-1.79,2.5-3.19.2-1.13-.17-2.48-1.28-3v1.08c.48-.28,1.06-.28,1.52-.61.42-.3.73-.79.68-1.32-.04-.46-.33-.83-.75-1.01s-.85-.04-1.28-.15c-.5-.13-.18-1.02-.12-1.39.09-.58.16-1.17-.01-1.74-.3-.99-1.44-1.69-2.39-1.07-.67.44-.05,1.52.63,1.08h0Z"/>
  <path class="cls-1" d="M133.93,45.83c.06,4,.13,7.99.19,11.99.01.8,1.26.81,1.25,0-.06-4-.13-7.99-.19-11.99-.01-.8-1.26-.81-1.25,0h0Z"/>
  <path class="cls-1" d="M136.99,46.05c1.37,3.96,2.74,7.93,4.11,11.89.26.76,1.47.43,1.21-.33-1.37-3.96-2.74-7.93-4.11-11.89-.26-.76-1.47-.43-1.21.33h0Z"/>
  <g>
    <path class="cls-1" d="M145.75,58c.8,0,.81-1.25,0-1.25s-.81,1.25,0,1.25h0Z"/>
    <path class="cls-1" d="M145.67,57.8s0,0,0,0l-.15-.06s.02.01.03.02l-.13-.1s.02.02.03.03l-.1-.13s.02.03.02.04l-.06-.15s.01.04.01.05l-.02-.17s0,.03,0,.05l.02-.17s0,.03-.01.05l.06-.15s-.01.02-.02.03l.1-.13s-.02.02-.02.02l.61-.16s-.03,0-.04-.01l.15.06s-.02-.01-.03-.02l.13.1s-.02-.02-.03-.03l.1.13s-.02-.03-.03-.05l.06.15s-.02-.05-.02-.07l.02.17s0-.06,0-.09l-.02.17s.01-.05.02-.08l-.06.15s.02-.03.03-.05l-.1.13s.02-.02.03-.03l-.13.1s.02-.01.03-.02l-.15.06s.03,0,.04-.01l-.17.02s.03,0,.05,0l-.17-.02s.03,0,.04.01l-.15-.06s.03.01.04.02l-.13-.1s.03.02.04.04l-.1-.13s.03.04.04.06l-.06-.15s.02.05.02.08l-.02-.17s0,.06,0,.08l.02-.17s0,.04-.02.06l.06-.15s-.01.03-.02.04l.1-.13s-.02.02-.03.03l.13-.1s-.02.02-.04.02l.15-.06s0,0,0,0c-.08.02-.15.06-.21.11-.07.04-.12.1-.16.18-.05.07-.07.15-.07.23-.02.08-.01.17.01.25l.06.15c.06.09.13.17.22.22l.15.06c.11.03.22.03.33,0,.13-.05.24-.09.34-.2s.15-.2.2-.34c.03-.08.03-.16.04-.24,0-.01,0-.03,0-.04,0-.03,0-.07-.01-.1,0-.03,0-.07-.01-.1-.02-.08-.05-.16-.09-.23,0-.01-.01-.02-.02-.03-.04-.05-.08-.11-.12-.16,0,0,0,0-.01-.01-.02-.02-.05-.04-.07-.05s-.05-.04-.07-.05c-.05-.04-.14-.06-.18-.08-.01,0-.02,0-.04-.01-.04,0-.14-.03-.21-.02-.14.01-.26.03-.38.11s-.19.15-.27.27c0,.01-.01.02-.02.03-.03.05-.05.11-.07.16,0,0,0,.02,0,.02,0,.01,0,.02,0,.04-.01.07-.02.14-.03.21,0,.01,0,.03,0,.04,0,0,0,.01,0,.02,0,.06.01.12.03.18,0,.01,0,.03.01.04.01.03.03.06.04.09s.02.06.04.09c0,.01.01.02.02.03.03.04.08.11.12.15.11.09.2.15.33.19,0,0,.02,0,.02,0h.08c.08.03.17.03.25,0,.12-.03.19-.08.28-.16.05-.05.1-.1.13-.16,0,0,0,0,0-.01.02-.05.05-.11.07-.16,0,0,0-.02,0-.02,0,0,0,0,0-.02,0-.06.02-.12.02-.18,0,0,0-.02,0-.03,0-.06-.01-.13-.03-.19,0,0,0-.02,0-.03-.02-.07-.05-.14-.08-.19,0,0,0,0,0-.01-.03-.04-.07-.09-.1-.13,0,0-.01-.01-.02-.02-.12-.1-.17-.13-.32-.18-.08-.03-.17-.03-.25-.01-.08,0-.16.03-.23.07-.07.04-.13.09-.18.16-.06.06-.09.13-.11.21l-.02.17c0,.11.03.22.09.32l.1.13c.08.08.17.13.28.16h0Z"/>
    <path class="cls-1" d="M145.68,52.5h.31c-.18-.1-.36-.2-.54-.3h0s-.04-.09-.06-.14c0,.02.02.05.02.07l-.02-.17s0,.06,0,.09l.02-.17s-.01.06-.02.08l.06-.15s-.02.05-.04.07l.1-.13s-.03.03-.04.05h.88s-.06-.06-.09-.09l.1.13s-.03-.04-.04-.07l.06.15s-.01-.04-.02-.06l.02.17s0-.02,0-.04l-.02.17s0-.03.01-.04l-.06.15s.01-.03.02-.04l-.1.13s.02-.02.02-.03l-.13.1s.02-.01.03-.02l-.15.06s.01,0,.02,0l-.17.02s.01,0,.02,0l-.17-.02s.01,0,.02,0l-.28-.16s.01.01.02.02l-.1-.13s.02.03.02.04l-.06-.15s.01.04.01.05l-.02-.17s0,.04,0,.06l.02-.17s0,.04-.02.07l.06-.15s-.02.04-.03.05l.1-.13s-.02.02-.03.03l.13-.1s-.02.02-.04.02l.15-.06s0,0-.01,0h.33s-.03,0-.04-.01l.15.06s-.03-.02-.04-.03l.13.1s-.03-.03-.05-.05l.1.13s-.03-.04-.04-.06l.06.15s-.02-.05-.02-.07l.02.17s0-.04,0-.07l-.02.17s0-.03.01-.05l-.77.44s.01,0,.02,0l-.15-.06s.02,0,.03.02l-.13-.1s.02.01.02.02l-.1-.13s.01.02.02.03l-.06-.15s0,.03.01.04l-.02-.17s0,.02,0,.03l.02-.17s0,.02,0,.03l.06-.15s0,.01-.01.02l.71-.29s-.04,0-.06-.02l.15.06s-.04-.02-.06-.04l.13.1s-.04-.03-.05-.05l.1.13s-.02-.03-.03-.05v.63s0,0,0-.01l-.1.13s.02-.02.03-.03l-.13.1s.03-.02.04-.02l-.15.06s.03-.01.05-.01l-.17.02s.03,0,.04,0l-.17-.02s.03,0,.04.01l-.15-.06s0,0,.01,0c.07.05.15.07.23.07.08.02.17.01.25-.01.08-.02.15-.06.21-.11.07-.04.12-.1.16-.18l.06-.15c.03-.11.03-.22,0-.33l-.06-.15c-.06-.09-.13-.17-.22-.22-.05-.03-.11-.05-.16-.07,0,0-.01,0-.02,0s-.01,0-.02,0c-.03,0-.06,0-.09-.01-.03,0-.06,0-.09-.01-.08,0-.16,0-.23.03,0,0-.01,0-.02,0-.05.02-.11.04-.16.07-.01,0-.02.01-.03.02-.04.03-.11.07-.15.12-.02.02-.04.05-.06.08-.06.08-.05.06-.09.15-.04.07-.06.15-.05.24l.02.17s.04.11.07.16c0,.01.01.02.02.03.03.05.07.09.11.14,0,0,0,.01.01.02,0,0,.02.02.03.03.04.04.09.07.14.11,0,0,.01,0,.02.01.01,0,.02.01.04.02.06.03.14.07.22.08l.17.02c.09,0,.17-.01.24-.05.05-.01.1-.04.14-.08.07-.04.12-.1.16-.18.07-.11.1-.24.1-.37,0-.07-.01-.14-.02-.2,0-.01,0-.02,0-.03-.02-.05-.04-.12-.08-.18-.03-.04-.07-.1-.1-.14,0,0,0,0-.01-.01-.04-.04-.09-.09-.15-.11,0,0,0,0,0,0l-.15-.06s-.01,0-.02,0c-.08-.03-.17-.03-.25-.01-.08,0-.16.03-.23.07l-.13.1c-.08.08-.13.17-.16.28,0,.01,0,.02-.01.03,0,.03-.01.07-.01.1s-.01.07-.01.1c0,.01,0,.02,0,.04,0,.06.01.12.02.18,0,0,0,.02,0,.02,0,.01,0,.02.01.03.02.05.04.11.07.16,0,0,0,.01,0,.02,0,.01.01.02.02.03.03.05.07.09.1.14,0,0,0,.01.01.02,0,0,.02.02.03.02.04.04.09.07.14.1,0,0,.01,0,.02.01,0,0,.01,0,.02,0,.05.02.11.05.16.07.01,0,.02,0,.04.01h.08c.08.03.17.03.25,0,0,0,0,0,0,0s0,0,0,0c.04-.01.12-.05.15-.06,0,0,.02,0,.03-.02.05-.03.09-.07.13-.1,0,0,0,0,.01,0,0,0,0,0,.01-.01.04-.04.07-.09.11-.14,0,0,.01-.02.02-.03,0,0,0,0,0-.01.03-.05.05-.11.07-.16,0-.02.01-.04.02-.06,0-.06.02-.12.02-.18,0,0,0-.01,0-.02,0-.01,0-.02,0-.03,0-.06-.01-.12-.02-.18,0,0,0-.01,0-.02,0-.04-.03-.07-.04-.11-.01-.03-.03-.07-.04-.1,0,0,0,0,0-.01-.02-.03-.07-.1-.1-.13,0,0,0,0,0,0,0,0,0,0-.01-.01,0,0-.12-.09-.13-.1-.01,0-.14-.06-.15-.06,0,0-.01,0-.02,0-.02,0-.15-.02-.17-.02,0,0,0,0-.01,0,0,0,0,0,0,0-.02,0-.15.02-.17.02,0,0-.01,0-.02,0-.02,0-.13.05-.15.06,0,0,0,0,0,0,0,0-.01,0-.02.01-.02.02-.06.05-.07.05,0,0-.05.03-.07.05,0,0,0,0-.01.01-.04.05-.09.1-.12.16-.02.03-.03.07-.04.09s-.03.06-.04.09c0,0,0,.01,0,.02,0,.04-.02.13-.02.17,0,0,0,.01,0,.02,0,0,0,.01,0,.02,0,.05.01.12.02.17,0,0,0,0,0,.01,0,0,0,.02,0,.02.02.06.04.11.07.17,0,.02.02.03.03.05.04.06.08.11.12.16.02.03.05.05.08.08.06.06.12.1.2.13.07.04.15.06.24.05l.17-.02c.11-.03.2-.08.28-.16.01-.01.03-.02.04-.04.04-.05.07-.09.11-.14,0,0,.01-.02.02-.02,0,0,0-.01.01-.02.03-.06.05-.11.07-.17,0-.02.01-.03.02-.05,0,0,0-.02,0-.03,0-.06.02-.12.02-.19,0-.02,0-.04,0-.06,0-.06-.01-.13-.03-.19,0,0,0-.02,0-.03,0,0,0-.02,0-.03-.02-.06-.05-.11-.07-.17-.06-.09-.13-.17-.22-.22-.1-.06-.2-.08-.32-.09h-.31c-.09-.01-.17,0-.24.05-.08.03-.14.07-.2.13-.06.06-.1.12-.13.2-.04.07-.06.15-.05.24l.02.17c.03.11.08.2.16.28l.13.1c.1.06.2.08.32.09h0Z"/>
  </g>
  <g>
    <path class="cls-1" d="M150.5,51.27s0,0,0,0l.15.06s0,0-.01,0l.13.1s0,0,0,0l.1.13s0,0,0-.01l.06.15s0-.01,0-.02l.02.17s0-.02,0-.02l-.02.17s0-.02,0-.03l-.06.15s0-.02.01-.02l-.1.13s0-.01.02-.02l-.13.1s0,0,.01,0l-.15.06s.01,0,.02,0l-.17.02s.01,0,.02,0l-.17-.02s.01,0,.02,0l-.15-.06s.01,0,.02.01l-.13-.1s.01.01.02.02l-.1-.13s.01.02.02.03l-.06-.15s0,.02.01.04l-.02-.17s0,.03,0,.04l.02-.17s0,.02,0,.03l.06-.15s-.01.02-.02.03l.1-.13s-.02.02-.03.03l.13-.1s-.03.02-.05.03l.15-.06s-.05.02-.07.02l.17-.02s-.02,0-.03,0l.17.02s0,0,0,0l.15.06s-.02,0-.02-.01l.13.1s-.01-.01-.02-.02l.1.13s-.01-.02-.02-.03l.06.15s0-.03-.01-.04l.02.17s0-.03,0-.05l-.02.17s0-.04.01-.05l-.06.15s.01-.03.02-.04l-.1.13s.01-.02.02-.02l-.13.1s.02-.01.02-.01l-.15.06s.02,0,.03,0l-.17.02s.02,0,.03,0l-.17-.02s.02,0,.03,0l-.15-.06s.02,0,.02.01l-.13-.1s.01.01.02.02l-.1-.13s.01.02.02.03l-.06-.15s.01.03.01.05l-.02-.17s0,.04,0,.05l.02-.17s0,.03-.01.05l.06-.15s-.01.02-.02.03l.1-.13s-.01.01-.02.02l.13-.1s-.01,0-.02.01l.15-.06s-.02,0-.02,0c-.08.02-.15.06-.21.11-.07.04-.12.1-.16.18-.05.07-.07.15-.07.23-.02.08-.01.17.01.25l.06.15c.06.09.13.17.22.22l.15.06c.11.03.22.03.33,0,0,0,.01,0,.02,0,.03,0,.06-.03.08-.03.02,0,.06-.02.08-.03,0,0,0,0,.01,0,.02-.01.11-.08.13-.1,0,0,0,0,0,0,0,0,0,0,0,0,.02-.02.04-.06.06-.07.02-.02.04-.05.06-.08.03-.06.06-.12.08-.18.01-.04.01-.08.02-.12,0-.04.01-.08.01-.12,0,0,0-.01,0-.02,0-.06-.01-.12-.02-.17,0,0,0,0,0-.01,0,0,0-.01,0-.02,0,0,0,0,0,0-.02-.05-.04-.11-.07-.16,0-.01-.01-.02-.02-.03-.03-.05-.07-.11-.12-.15-.03-.02-.1-.08-.13-.1,0,0,0,0,0,0,0,0,0,0,0,0s0,0,0,0c0,0,0,0,0,0-.03-.01-.13-.05-.15-.06,0,0,0,0-.01,0,0,0,0,0,0,0-.02,0-.14-.02-.17-.02,0,0,0,0,0,0,0,0-.01,0-.02,0-.03,0-.1.01-.09.01,0,0-.06,0-.09.01,0,0,0,0,0,0s0,0,0,0c0,0,0,0,0,0-.02,0-.13.05-.15.06,0,0-.01,0-.01,0,0,0,0,0,0,0-.02.02-.07.05-.07.05,0,0-.04.03-.07.05,0,0,0,0-.01.01,0,0,0,0,0,0,0,0,0,0,0,0-.02.02-.08.1-.1.13,0,0,0,.01-.01.02,0,0,0,.01,0,.02-.01.03-.02.06-.03.08s-.02.05-.03.08c0,.01,0,.02,0,.04,0,.03,0,.06-.01.09s0,.06-.01.09c0,0,0,.01,0,.02,0,0,0,.01,0,.02,0,.06.01.12.02.17,0,0,0,0,0,0,0,0,0,.01,0,.02,0,0,0,0,0,0,0,0,0,0,0,0,.01.03.05.12.06.15,0,0,0,.01,0,.02,0,0,0,0,0,0,0,0,0,0,0,0,.02.03.08.1.1.13,0,0,0,0,.01.01,0,0,0,0,0,0,.02.01.11.09.13.1,0,0,0,0,0,0,0,0,0,0,.01,0,.02.01.08.03.08.03l.07.03s0,0,0,0c0,0,.16.02.17.02,0,0,0,0,0,0,.06,0,.13-.02.19-.02,0,0,.02,0,.03,0,0,0,.02,0,.03,0,0,0,0,0,.01,0,.05-.02.11-.04.16-.07.06-.03.12-.09.17-.13,0,0,.01-.01.02-.02,0,0,0,0,0-.01.03-.03.07-.09.1-.13,0,0,0,0,0,0,0,0,0-.02.01-.02.01-.02.03-.07.03-.08,0,0,.02-.05.03-.08,0,0,0,0,0-.01,0,0,0,0,0-.01,0-.03.01-.07.01-.09,0-.02,0-.06.01-.09,0,0,0-.02,0-.02,0,0,0,0,0-.01,0-.05-.01-.12-.02-.17,0,0,0-.02,0-.02,0,0,0,0,0-.01-.01-.03-.05-.12-.06-.15,0,0,0,0,0,0,0,0,0-.01-.01-.02-.02-.02-.04-.06-.05-.07,0,0-.03-.05-.05-.07,0,0,0,0,0,0,0,0,0,0,0,0-.02-.02-.11-.08-.13-.1,0,0,0,0,0,0,0,0,0,0,0,0,0,0,0,0,0,0-.02,0-.13-.06-.15-.06,0,0,0,0,0,0,0,0,0,0,0,0h0c-.06,0-.11-.02-.17-.02-.03,0-.07,0-.1.01-.11.01-.08,0-.17.05-.03.01-.06.02-.09.04-.01,0-.12.09-.13.1,0,0,0,0,0,0,0,0,0,0,0,0-.02.02-.04.05-.05.07-.01.02-.04.05-.05.07,0,0,0,.01,0,.02-.01.02-.05.13-.06.15,0,0,0,0,0,0,0,0,0,0,0,0,0,.03-.01.08-.01.1,0,.02-.01.07-.01.1,0,0,0,0,0,0,0,.02.02.15.02.17,0,0,0,0,0,0,0,0,0,0,0,0,0,.02.05.13.03.08-.02-.05.02.05.03.08,0,0,0,0,0,0,0,0,0,0,0,0,.01.02.08.11.1.13,0,0,0,0,0,0,.02.02.13.1.07.05l.06.05h0s0,0,0,0c0,0,.14.06.15.06,0,0,0,0,0,0,.08.03.17.03.25.01.08,0,.16-.03.23-.07.07-.04.13-.09.18-.16.06-.06.09-.13.11-.21l.02-.17c0-.11-.03-.22-.09-.32l-.1-.13c-.08-.08-.17-.13-.28-.16h0Z"/>
    <path class="cls-1" d="M149.74,57.8s.06.06.08.1l-.1-.13c.07.1.13.2.18.31l-.06-.15c.05.12.08.25.1.37l-.02-.17c.02.14.02.28,0,.42l.02-.17c-.02.13-.05.25-.1.37l.06-.15c-.04.09-.09.18-.15.26l.1-.13s-.03.04-.05.06c-.11.13-.18.27-.18.44,0,.15.07.34.18.44.23.21.66.27.88,0,.33-.39.52-.88.5-1.4s-.2-1-.56-1.38c-.23-.24-.66-.24-.88,0s-.24.63,0,.88h0Z"/>
  </g>
  <g>
    <path class="cls-1" d="M153.08,46.54l.15,2.43c.02.33.27.64.62.62.32-.01.65-.28.62-.62l-.15-2.43c-.02-.33-.27-.64-.62-.62-.32.01-.65.28-.62.62h0Z"/>
    <path class="cls-1" d="M155.47,46.69l.23,2.51c.02.17.06.32.18.44.11.11.29.19.44.18.31-.01.66-.28.62-.62l-.23-2.51c-.02-.17-.06-.32-.18-.44-.11-.11-.29-.19-.44-.18-.31.01-.66.28-.62.62h0Z"/>
  </g>
  <path class="cls-1" d="M159.44,47.09l.15,2.12c.01.17.06.32.18.44.11.11.29.19.44.18.32-.01.65-.28.62-.62l-.15-2.12c-.01-.17-.06-.32-.18-.44-.11-.11-.29-.19-.44-.18-.32.01-.65.28-.62.62h0Z"/>
  <g>
    <path class="cls-1" d="M162.18,58.05l.05.05c.56.58,1.44-.3.88-.88l-.05-.05c-.56-.58-1.44.3-.88.88l.05.05c.56.58,1.44-.3.88-.88l-.05-.05c-.56-.58-1.44.3-.88.88h0Z"/>
    <path class="cls-1" d="M163.43,57.68h0s-.04.1-.06.15c0,0,0,0,0-.01l-.1.13s0,0,0,0l-.13.1s0,0,0,0l-.15.06s0,0,0,0l-.17.02s0,0,0,0l-.17-.02s0,0,.01,0l-.15-.06s0,0,.01,0l-.13-.1s.01.01.02.02l-.1-.13s.01.02.02.03l-.06-.15s0,.02,0,.04l-.02-.17s0,.02,0,.03l.02-.17s0,.01,0,.02l.06-.15s0,.01,0,.02l.1-.13s-.02.02-.03.03l.13-.1s-.08.05-.12.07c-.01,0-.02.01-.03.02-.04.03-.09.07-.13.1,0,0,0,0-.01.01-.05.04-.08.1-.12.15s-.05.12-.08.18h1.21s-.01-.04-.02-.06l.02.17s0-.05,0-.07l-.02.17s.01-.05.02-.07l-.06.15s.02-.05.04-.07l-.1.13s.03-.03.05-.05l-.13.1s.03-.02.05-.03l-.15.06s.02,0,.02,0h-.33s0,0,0,0l-.15-.06s.04.02.06.04l-.13-.1s.03.03.05.05l-.1-.13s.02.02.02.04l-.06-.48s0,.03-.01.04l.06-.15s-.02.03-.03.04l.1-.13s-.02.02-.04.03l.13-.1s-.02.02-.04.02l.15-.06s-.03,0-.04.01c-.08.02-.15.06-.21.11-.07.04-.12.1-.16.18-.05.07-.07.15-.07.23-.02.08-.01.17.01.25l.06.15c.06.09.13.17.22.22l.15.06c.11.03.22.03.33,0,.04,0,.08-.03.12-.04.03-.01.06-.02.09-.04s.06-.04.08-.06c.03-.03.07-.05.1-.08.04-.04.07-.09.11-.14,0,0,0-.02.01-.02.03-.06.06-.12.08-.19,0,0,0,0,0,0l.02-.17c0-.11-.03-.22-.09-.32,0,0,0-.02-.01-.02-.04-.06-.08-.11-.13-.16s-.11-.09-.16-.13c-.01-.01-.03-.02-.04-.03-.05-.03-.11-.05-.17-.07-.03-.01-.04,0-.09-.02-.1-.01-.15-.02-.26.01-.06.02-.12.05-.18.08-.06.03-.12.09-.16.12-.01,0-.02.02-.03.03-.05.05-.09.1-.12.16,0,.01-.01.02-.02.03-.03.06-.06.12-.08.19,0,.02,0,.03-.01.05,0,.06-.02.12-.02.19,0,0,0,.02,0,.02,0,.07.01.14.03.21,0,.02,0,.03.01.05l.06.15c.04.07.09.13.16.18.04.04.08.07.14.08.07.04.15.06.24.05l.17-.02.15-.06c.07-.04.13-.09.18-.16.06-.06.09-.13.11-.21h0s-.04.1-.06.15c0-.01.01-.02.02-.03l-.1.13s.02-.02.03-.03l-.13.1s.07-.04.11-.06c0,0,.02-.01.03-.02,0,0,0,0,.01,0,.05-.03.09-.07.14-.11,0,0,.01-.01.02-.02,0-.01.09-.12.1-.13,0,0,0,0,0,0,0,0,0,0,0-.01.02-.04.06-.11.07-.17,0-.03.02-.14.02-.17,0,0,0,0,0,0,0,0,0,0,0-.01,0,0,0,0,0,0,0-.03-.02-.14-.02-.17,0,0,0,0,0-.01,0,0,0-.02,0-.02-.02-.05-.04-.11-.07-.16,0,0,0,0,0-.01,0,0,0,0,0,0,0,0,0,0,0,0-.02-.04-.07-.1-.1-.13-.04-.05-.1-.09-.15-.12,0,0-.15-.06-.15-.06,0,0,0,0,0,0,0,0,0,0,0,0,0,0-.16-.02-.17-.02,0,0,0,0,0,0,0,0-.16.02-.17.02-.03,0-.04.02-.08.03-.1.04-.06.02-.14.08-.03.03-.05.03-.07.05,0,0-.1.12-.1.13,0,0,0,0,0,0,0,0,0,0,0,0-.01.03-.02.05-.03.08-.01.03-.02.05-.03.08-.03.08-.03.17-.01.25,0,.08.03.16.07.23.04.07.09.13.16.18.06.06.13.09.21.11l.17.02c.11,0,.22-.03.32-.09l.13-.1c.08-.08.13-.17.16-.28h0Z"/>
    <path class="cls-1" d="M162.54,58.24c.03.09.05.18.06.27l-.02-.17c.02.13.02.26,0,.38l.02-.17c-.02.12-.05.24-.1.35l.06-.15s-.03.07-.05.1c-.08.15-.11.32-.06.48.04.14.15.3.29.37.15.08.32.12.48.06.15-.05.3-.14.37-.29.14-.27.21-.54.24-.85,0-.1,0-.2,0-.29-.02-.15-.04-.3-.09-.44-.05-.15-.14-.29-.29-.37-.13-.08-.33-.11-.48-.06s-.3.14-.37.29-.12.32-.06.48h0Z"/>
  </g>
  <path class="cls-1" d="M166.23,57.91s.06-.04.09-.05l-.15.06s.07-.02.1-.03l-.17.02s.07,0,.1,0l-.6-.46s0,.01,0,.02l-.02-.17s0,.03,0,.05l.02-.17s0,.04-.02.06l.06-.15s-.02.03-.03.05l.1-.13s-.02.03-.04.04l.13-.1s-.02.02-.04.02l.15-.06s-.02,0-.03,0l.48.06s-.02-.01-.02-.02l.13.1s-.05-.05-.07-.07l.1.13s-.04-.05-.05-.09l.06.15s-.02-.04-.02-.06l-.06.48s0,0,0-.01l-.1.13s.02-.02.03-.03l-.13.1s.03-.02.04-.02l-.15.06s.03-.01.05-.01l-.17.02s.03,0,.05,0l-.17-.02s.03,0,.04.01l-.15-.06s.01,0,.02,0l-.22-.22s0,0,0,.01l-.06-.15s0,.02,0,.03l-.02-.17s0,.03,0,.04l.02-.17s0,.03-.01.04l.06-.15s-.01.02-.02.03l.1-.13s-.01.02-.02.02l.13-.1s-.02.01-.02.01l.15-.06s0,0,0,0l.48.06s0,0,0,0l.13.1s0,0,0,0l.1.13s0,0,0-.01l.06.15s0,0,0-.01l.02.17s0-.01,0-.02l-.02.17s0-.02,0-.02l-.06.15s0-.01.01-.02l-.1.13s.01-.01.02-.02l-.13.1s.01,0,.02-.01l-.15.06s0,0,.02,0l-.17.02s.01,0,.02,0l-.17-.02s.01,0,.02,0l-.15-.06s.01,0,.02.01l-.13-.1s.01.01.02.02l-.1-.13s.01.02.02.04l-.06-.15s.01.03.01.05l-.02-.17s0,.03,0,.05l.31-.54s-.02.01-.03.01l.15-.06s-.02,0-.03,0l.17-.02s-.03,0-.04,0l.17.02s-.03,0-.04-.01l.15.06s-.02-.01-.03-.02l.13.1s-.02-.02-.03-.03l.1.13s-.01-.02-.02-.03l.06.15s0-.03-.01-.04l.02.17s0-.03,0-.04l-.02.17s0-.03.01-.05l-.06.15s.01-.03.02-.04l-.1.13s.02-.02.03-.03l-.13.1s.02-.01.03-.02l-.15.06s0,0,0,0h-.33s0,0,0,0l-.15-.06s.01,0,.02.01l-.13-.1s0,0,.01.01l-.1-.13s0,.01,0,.02l-.06-.15s0,.01,0,.02l-.02-.17s0,.02,0,.03l.02-.17s0,.03-.01.04l.06-.15s-.01.03-.02.04l.1-.13s-.02.02-.03.03l.13-.1s-.02.01-.03.02l.15-.06s-.01,0-.02,0l.17-.02s-.01,0-.02,0l.17.02s-.01,0-.02,0l.15.06s-.02,0-.02-.01l.13.1s-.01-.01-.02-.02l.1.13s0-.01-.01-.02l.06.15s0-.02,0-.03l.02.17s0-.03,0-.04l-.02.17s0-.03.01-.05l-.06.15s.02-.03.03-.05l-.1.13s.02-.02.03-.03l-.13.1s.02-.01.03-.02l-.15.06s.02,0,.03,0l-.17.02s.02,0,.03,0l-.17-.02s.02,0,.03,0l-.15-.06s.02.01.03.02l-.13-.1s.02.02.03.03l-.1-.13s.02.03.02.04l-.06-.15s.01.04.01.05l-.02-.17s0,.04,0,.07l.02-.17s0,.04-.02.06l.06-.15s-.01.03-.02.04l.1-.13s-.01.02-.02.02c-.06.06-.1.12-.13.2-.04.07-.06.15-.05.24,0,.09.01.17.05.24.03.08.07.14.13.2l.13.1c.1.06.2.08.32.09l.17-.02c.11-.03.2-.08.28-.16.05-.04.09-.1.12-.16s.07-.15.08-.18c0-.01,0-.02.01-.04,0,0,0-.01,0-.02,0-.06.02-.12.02-.18,0-.01,0-.03,0-.04,0-.06-.01-.14-.03-.21-.02-.06-.05-.12-.08-.18,0,0,0-.01-.01-.02,0,0,0,0,0,0-.03-.04-.07-.09-.1-.13-.02-.03-.06-.05-.09-.07-.1-.08-.11-.08-.24-.13-.12-.05-.27-.04-.4,0,0,0-.01,0-.02,0-.04.01-.11.05-.15.06,0,0,0,0,0,0,0,0-.01,0-.02,0-.02.02-.05.04-.07.05-.02.02-.05.04-.07.06-.04.04-.1.12-.12.15,0,.01-.02.02-.02.04-.03.06-.06.12-.08.18,0,0,0,.01,0,.02,0,.03,0,.06-.01.09s-.01.06-.01.09c0,0,0,.01,0,.02,0,0,0,0,0,.01,0,.04.01.13.02.17.01.06.04.13.07.18.06.1.17.22.27.27.03.01.13.06.15.06,0,0,0,0,0,0,0,0,0,0,0,0,.03,0,.14.02.17.02,0,0,.01,0,.02,0,.03,0,.14-.02.17-.02,0,0,0,0,0,0,.12-.04.24-.1.33-.19.04-.05.08-.1.12-.15,0-.01.01-.02.02-.03.06-.13.1-.23.1-.37,0-.12-.03-.26-.1-.37-.08-.11-.13-.17-.24-.24-.04-.03-.23-.08-.16-.07-.04,0,.04,0-.09-.01-.08-.02-.17-.01-.25.01,0,0,0,0,0,0-.13.04-.2.09-.31.18,0,0-.01,0-.02.02,0,0,0,0,0,0-.03.04-.07.09-.1.13-.04.05-.07.14-.08.19-.02.04-.02.09-.02.13,0,.03-.01.07-.01.1,0,.06.02.16.02.19,0,0,0,.02,0,.02,0,0,0,0,0,.01.01.03.02.05.03.08.01.03.02.05.03.08.06.12.17.22.28.29.12.07.26.11.4.11,0,0,.02,0,.02,0,.05,0,.12-.01.17-.02,0,0,0,0,0,0,.07-.02.13-.05.19-.08.1-.06.17-.13.23-.23l.06-.15.02-.17s0-.02,0-.03c0-.03,0-.07-.01-.1s0-.07-.02-.11c0,0,0-.02,0-.03-.02-.05-.04-.11-.07-.15,0,0,0,0,0,0-.03-.06-.08-.12-.13-.16-.1-.09-.18-.14-.31-.18-.06-.02-.12-.02-.18-.03,0,0,0,0,0,0-.03,0-.06,0-.09.01-.03,0-.06,0-.09.01-.18.05-.33.17-.43.33s-.13.36-.08.54c.03.11.09.22.17.3.04.04.09.08.14.11l.15.06.17.02c.12,0,.16-.02.25-.06.02-.01.06-.02.09-.04.02-.02.05-.04.07-.05.02-.01.05-.04.07-.05.05-.05.09-.1.12-.16.02-.03.03-.07.04-.09s.03-.06.04-.09c.02-.07.03-.14.03-.21,0,0,0,0,0-.01,0-.05-.01-.12-.02-.17,0,0,0-.02,0-.02-.02-.06-.04-.11-.07-.16-.04-.09-.15-.19-.24-.23-.04-.02-.11-.05-.15-.07,0,0,0,0-.01,0,0,0-.01,0-.02,0-.06-.01-.14-.03-.21-.02-.06,0-.13.01-.19.03,0,0-.02,0-.02,0-.06.02-.13.05-.19.08s-.11.08-.16.13c-.02.02-.04.05-.06.07-.02.02-.04.05-.06.07h0c-.02.05-.04.1-.06.15-.03.11-.03.23,0,.34,0,.02.01.04.02.06.03.07.05.14.09.2s.08.11.13.17c.01.02.03.03.04.05,0,0,.02.01.02.02.05.04.1.08.15.11,0,0,0,0,.01,0l.15.06.17.02s.13,0,.19-.03.13-.04.19-.08c.04-.03.12-.08.16-.13s.09-.11.12-.17c.03-.05.05-.11.07-.16,0-.01,0-.02.01-.03.04-.15.03-.27,0-.42l-.06-.15c-.04-.07-.09-.13-.16-.18-.04-.04-.08-.07-.14-.08-.07-.04-.15-.06-.24-.05-.03,0-.05,0-.08,0-.08,0-.16.01-.24.04s-.15.05-.22.09c-.02.01-.05.03-.07.04-.07.04-.13.09-.18.16-.06.06-.09.13-.11.21-.03.08-.03.17-.01.25,0,.08.03.16.07.23l.1.13c.08.08.17.13.28.16l.17.02c.11,0,.22-.03.32-.09h0Z"/>
  <g>
    <path class="cls-1" d="M169.46,48.55c.1-.39.24-.83.63-1.02.35-.16.79-.09,1.11.09.8.43.96,1.51.73,2.31-.12.42-.33.81-.63,1.13-.33.36-.71.56-1.12.81-1.08.69-.75,2.17-.51,3.23.18.78,1.39.45,1.21-.33-.08-.36-.15-.73-.17-1.1-.02-.25-.08-.55.1-.72s.5-.28.72-.43c.27-.19.52-.41.73-.66.77-.91,1.17-2.1.95-3.29s-1.15-2.19-2.39-2.34c-.61-.07-1.22.07-1.7.46s-.72.96-.87,1.54c-.21.78,1,1.11,1.21.33h0Z"/>
    <path class="cls-1" d="M170.83,57.37s-.01-.03-.01-.05l.02.17s0-.04,0-.07l-.02.17s0-.04.02-.06l-.06.15s.02-.03.03-.05l-.1.13s.02-.02.03-.03l-.13.1s.02-.02.03-.02l-.15.06s.02,0,.04-.01l-.17.02s.03,0,.04,0l-.17-.02s.03,0,.05.01l-.15-.06s.03.01.04.02l-.13-.1s.02.02.03.03l-.1-.13s.01.02.02.03l-.06-.15s0,.02,0,.03l-.02-.17s0,.02,0,.03l.02-.17s0,.02,0,.02l.06-.15s0,.01-.01.02l.1-.13s-.01.02-.02.02l.13-.1s-.02.01-.03.02l.15-.06s-.03,0-.04.01l.17-.02s-.03,0-.04,0l.17.02s-.02,0-.03,0l.15.06s-.01,0-.02-.01l.13.1s0,0-.01-.01l.1.13s0-.01-.01-.02l.06.15h0c-.02-.08-.06-.16-.11-.22-.04-.07-.1-.12-.18-.16-.07-.05-.15-.07-.23-.07-.08-.02-.17-.01-.25.01l-.15.06c-.09.06-.17.13-.22.22l-.06.15c-.03.11-.03.22,0,.33.01.03.02.05.03.08,0,0,.02.06.03.08,0,0,0,0,0,0,0,0,0,0,0,0,0,.01.09.12.1.13,0,0,0,0,0,0,0,0,0,0,0,0,.02.02.1.08.13.1,0,0,0,0,0,0,0,0,0,0,0,0,0,0,0,0,0,0,.03.01.13.05.15.06,0,0,.01,0,.02,0,.03,0,.07,0,.09.01.02,0,.06.01.09.01,0,0,.01,0,.02,0,.03,0,.07,0,.09-.01.03,0,.06,0,.09-.01,0,0,.01,0,.02,0,0,0,0,0,0,0,.04-.02.11-.04.15-.06,0,0,0,0,0,0,0,0,.01,0,.02-.01,0,0,0,0,0,0,.02-.02.11-.08.13-.1,0,0,0,0,0,0,.02-.02.05-.06.06-.08.02-.02.04-.05.06-.08.03-.05.05-.11.07-.16,0,0,0,0,0-.01,0-.02.02-.14.02-.17,0,0,0,0,0,0,0,0,0-.02,0-.02,0-.03-.02-.14-.02-.17,0,0,0,0,0,0,0,0,0,0,0-.01,0,0,0,0,0,0-.01-.03-.05-.12-.06-.15,0,0,0,0,0-.01,0,0,0,0,0,0,0,0,0,0,0,0-.03-.04-.07-.09-.1-.13,0,0-.01-.01-.02-.02,0,0,0,0,0,0-.02-.02-.05-.04-.07-.05-.02-.02-.05-.04-.07-.05,0,0-.01,0-.02-.01-.05-.03-.11-.05-.17-.07,0,0-.02,0-.02,0,0,0,0,0-.01,0-.04,0-.13-.02-.17-.02,0,0,0,0,0,0,0,0-.02,0-.02,0,0,0,0,0,0,0-.04,0-.13.02-.17.02,0,0,0,0-.01,0-.05.01-.16.07-.17.07,0,0-.02,0-.02.01-.05.03-.1.07-.14.11,0,0-.01.01-.02.02-.02.02-.04.05-.05.07s-.04.05-.05.07c0,0,0,0,0,.01,0,0,0,.02-.01.03-.02.05-.05.11-.07.16,0,0,0,.01,0,.02,0,0,0,.02,0,.03,0,.06-.02.12-.02.18,0,0,0,.01,0,.02,0,.01,0,.02,0,.03,0,.06.01.13.03.19,0,.01,0,.02,0,.03.02.08.06.15.11.21.04.07.1.12.18.16.07.05.15.07.23.07.08.02.17.01.25-.01l.15-.06c.09-.06.17-.13.22-.22l.06-.15c.03-.11.03-.22,0-.33h0Z"/>
  </g>
  <path class="cls-1" d="M174.26,57.26c1.03-3.34,2.08-6.68,3.17-10,.25-.77-.96-1.09-1.21-.33-1.09,3.32-2.15,6.66-3.17,10-.24.77.97,1.1,1.21.33h0Z"/>
  <path class="cls-1" d="M3.85,62.44c-.56.44-1.12.88-1.67,1.34-.26.22-.52.44-.78.66-.31.27-.56.64-.45,1.07.09.35.41.56.68.79s.54.44.82.65c.57.44,1.15.87,1.75,1.27.28.19.69.05.86-.22.18-.31.06-.67-.22-.86-.48-.32-.95-.66-1.4-1.01-.22-.17-.44-.34-.66-.52-.11-.09-.21-.17-.32-.26-.09-.07-.23-.25-.34-.29-.07-.08-.08,0-.01.2-.04.22-.03.28.04.2.05-.03.11-.1.15-.14.12-.1.24-.2.35-.3.23-.19.45-.38.68-.57.47-.38.94-.76,1.42-1.13.27-.21.22-.67,0-.88-.26-.26-.62-.21-.88,0h0Z"/>
  <g>
    <path class="cls-1" d="M9.31,63.41c.34.08.68.17,1.01.29.08.03.15.06.23.09.03.01.08.03.02,0,.05.02.09.04.14.06.16.07.32.15.47.23.3.16.59.34.87.54.04.03.08.06.13.09.02.02.07.06.02.02.06.05.13.1.19.16.14.12.28.25.41.38.23.23.65.25.88,0s.25-.64,0-.88c-1.12-1.09-2.53-1.86-4.05-2.19-.32-.07-.69.1-.77.44-.07.32.1.69.44.77h0Z"/>
    <path class="cls-1" d="M10.57,68.09l3.02-2.77c.24-.22.24-.66,0-.88-.26-.24-.63-.24-.88,0l-3.02,2.77c-.24.22-.24.66,0,.88.26.24.63.24.88,0h0Z"/>
  </g>
</svg>